<?xml version="1.0" standalone="no"?>
<!DOCTYPE svg PUBLIC "-//W3C//DTD SVG 1.1//EN" "http://www.w3.org/Graphics/SVG/1.1/DTD/svg11.dtd" >
<svg>
<metadata>
Created by FontForge 20090914 at Tue Jun 27 11:18:28 2017
 By www-data
&#194;&#169; 2010-2015 Changzhou SinoType Technology Co., Ltd.  All rights reserved.
</metadata>
<defs>
<font id="STYuanti-SC-Regular" horiz-adv-x="1000" vert-adv-y="1000" >
  <font-face 
    font-family="Yuanti SC"
    font-weight="400"
    font-stretch="normal"
    units-per-em="1000"
    panose-1="2 1 6 0 4 1 1 1 1 1"
    ascent="860"
    descent="-140"
    x-height="524.002"
    cap-height="691"
    bbox="4.94537 -189.005 989.998 790.128"
    underline-thickness="20"
    underline-position="-123"
    unicode-range="U+0020-U+FF43"
  />
<missing-glyph 
 />
    <glyph glyph-name=".notdef" 
 />
    <glyph glyph-name="space" unicode=" " horiz-adv-x="250" 
 />
    <glyph glyph-name="hyphen" unicode="-" horiz-adv-x="541" 
d="M479 300c0 -24.667 -11.3311 -37 -33.998 -37h-332c-8 0 -15.833 0.333008 -23.5 1s-14.334 2.16699 -20.001 4.5s-10.334 6 -14.001 11s-5.5 11.833 -5.5 20.5c0 17.333 6.5 28 19.5 32s27.833 6 44.5 6h331c22.667 0 34 -12.667 34 -38z" />
    <glyph glyph-name="A" unicode="A" horiz-adv-x="613" 
d="M168 176l-40.999 -115.001l-10 -27c-3.33301 -8.66699 -7.16602 -16.667 -11.499 -24s-9.33301 -13.166 -15 -17.499s-12.167 -6.5 -19.5 -6.5c-13.333 0 -23.666 4.16699 -30.999 12.5s-7.33301 23.833 0 46.5l210 611c3.33301 10.667 9.16602 19.167 17.499 25.5
s19.166 9.5 32.499 9.5c14 0 25.333 -3.16699 34 -9.5s14.667 -14.833 18 -25.5l211 -613c5.33301 -16 5.66602 -29.5 0.999023 -40.5s-15.667 -16.5 -33 -16.5c-11.333 -0.666992 -20.5 2.5 -27.5 9.5s-12.167 16.167 -15.5 27.5l-55 153h-265zM415.001 245.999l-114 343
l-114 -343h228z" />
    <glyph glyph-name="B" unicode="B" horiz-adv-x="545" 
d="M346 363c46.667 -7.33301 84.835 -25.166 114.502 -53.499s44.5 -68.166 44.5 -119.499c0 -60.667 -17.833 -108.167 -53.5 -142.5s-85.834 -51.5 -150.501 -51.5h-204c-14 0 -24.5 3.66699 -31.5 11s-10.5 16.666 -10.5 27.999v606c0 11.333 3.66699 20.666 11 27.999
s17.666 11 30.999 11h159c36 0 67 -4.16699 93 -12.5s47.333 -20.166 64 -35.499s29 -33.5 37 -54.5s12 -44.5 12 -70.5c0 -38 -10.833 -69.333 -32.5 -94s-49.5 -41.334 -83.5 -50.001zM134.001 395h121c42 0 74 9.5 96 28.5s33 45.167 33 78.5
c0 32 -10.5 58.167 -31.5 78.5s-53.5 30.5 -97.5 30.5h-121v-216zM134.001 65l135.001 0.000976562c53.333 0 93 10.167 119 30.5s39 52.5 39 96.5c0 47.333 -15.333 81.166 -46 101.499s-75.334 30.5 -134.001 30.5h-113v-259z" />
    <glyph glyph-name="C" unicode="C" horiz-adv-x="636" 
d="M368 -24c-50 0 -95.6699 8.33008 -137.003 24.9971s-76.666 40.667 -105.999 72s-52 69.5 -68 114.5s-24 95.833 -24 152.5c0 49.333 7.83301 96 23.5 140s37.167 82.333 64.5 115s60.166 58.5 98.499 77.5s80.5 28.5 126.5 28.5c24 0 47 -2.66699 69 -8
s42 -12.333 60 -21s34 -18.5 48 -29.5s25.333 -22.167 34 -33.5c6.66699 -12.667 9.33398 -23.667 8.00098 -33c-1.33301 -5.33301 -4.16602 -9.83301 -8.49902 -13.5s-10.166 -6.16699 -17.499 -7.5c-8 -2 -17.833 0.833008 -29.5 8.5l-41.5 26.5
c-16 10 -34.333 19.333 -55 28s-44 13 -70 13c-36 0 -68.333 -8.66699 -97 -26s-53 -39.666 -73 -66.999s-35.333 -58.5 -46 -93.5s-16 -69.833 -16 -104.5c0 -42.667 5.83301 -82 17.5 -118s28.5 -67.167 50.5 -93.5s49 -46.666 81 -60.999s68 -21.5 108 -21.5
c32 0.666992 59.167 6.33398 81.5 17.001s43.166 24.667 62.499 42c14.667 11.333 27.334 16 38.001 14c10 -2.66699 17.333 -7.5 22 -14.5s6.66699 -14.167 6 -21.5s-6.5 -17 -17.5 -29s-26 -23.833 -45 -35.5s-41.167 -21.667 -66.5 -30s-52.333 -12.5 -81 -12.5z" />
    <glyph glyph-name="R" unicode="R" horiz-adv-x="576" 
d="M55 632c0 20.667 3.66602 33.8311 10.999 39.498s22.666 8.5 45.999 8.5h162c70.667 0 124.667 -15 162 -45s56 -78.333 56 -145c0 -66 -19.333 -114.833 -58 -146.5s-92 -47.5 -160 -47.5h-27l220 -213c6.66699 -7.33301 13 -14.666 19 -21.999
s10.667 -14.666 14 -21.999s4.83301 -14.333 4.5 -21s-3.16602 -12.667 -8.49902 -18c-8.66699 -8.66699 -18.667 -13.167 -30 -13.5s-21.333 4.16699 -30 13.5l-292 296h-10v-270c0 -11.333 -3.16699 -20.833 -9.5 -28.5s-16.166 -11.5 -29.499 -11.5
c-14.667 0 -25 3.83301 -31 11.5s-9 17.167 -9 28.5v606zM133.999 364.997l140 0.000976562c46 0 80.667 9.66699 104 29s35 50.666 35 93.999s-12.167 74.333 -36.5 93s-58.5 28 -102.5 28h-140v-244z" />
    <glyph glyph-name="S" unicode="S" horiz-adv-x="494" 
d="M124 523c0 -18.667 4.33008 -34.6641 12.9971 -47.9971s20 -25 34 -35s30.167 -19.333 48.5 -28l56.5 -26c25.333 -11.333 48 -23 68 -35s37 -25.667 51 -41s24.667 -33 32 -53s11 -43.333 11 -70c0 -29.333 -5.33301 -56.5 -16 -81.5s-25.667 -46.667 -45 -65
s-42.5 -32.666 -69.5 -42.999s-56.5 -15.833 -88.5 -16.5c-25.333 -0.666992 -50.166 2.16602 -74.499 8.49902s-46.166 14.166 -65.499 23.499c-28.667 14.667 -47.334 30 -56.001 46s-8.66699 30 0 42c7.33301 9.33301 15.833 13.666 25.5 12.999
s20.167 -4.66699 31.5 -12c20 -13.333 41.833 -24.833 65.5 -34.5s49.5 -14.5 77.5 -14.5c17.333 0 34.166 3.33301 50.499 10s30.833 15.667 43.5 27s22.834 25 30.501 41s11.5 33.333 11.5 52s-3.66699 35.5 -11 50.5s-17 28.333 -29 40s-25.5 21.667 -40.5 30
s-29.833 15.5 -44.5 21.5c-27.333 10.667 -52.666 21.667 -75.999 33s-43.5 24.333 -60.5 39s-30.167 32.167 -39.5 52.5s-14 45.166 -14 74.499c0 26.667 5.33301 50.834 16 72.501s24.834 40 42.501 55s38 26.333 61 34s47.167 11.5 72.5 11.5s50 -3.5 74 -10.5
s44.5 -15.667 61.5 -26s29.167 -22 36.5 -35s7.33301 -25.833 0 -38.5c-6 -10 -15 -14.833 -27 -14.5s-23 4.16602 -33 11.499c-13.333 9.33301 -30 18.833 -50 28.5s-40.667 14.167 -62 13.5c-34 0 -61.167 -9.66699 -81.5 -29s-30.5 -44 -30.5 -74z" />
    <glyph glyph-name="T" unicode="T" horiz-adv-x="549" 
d="M313 608l-0.000976562 -582c0 -13.333 -2.66699 -23.333 -8 -30s-15.666 -10 -30.999 -10s-25.666 3.5 -30.999 10.5s-8 16.833 -8 29.5v582h-161c-12 0 -21.5 2.66699 -28.5 8s-10.5 14.666 -10.5 27.999c0 12.667 3.66699 21.834 11 27.501s16.666 8.5 27.999 8.5h400
c11.333 0 20.666 -3.16699 27.999 -9.5s11 -15.5 11 -27.5c0 -13.333 -4.16699 -22.5 -12.5 -27.5s-17.166 -7.5 -26.499 -7.5h-161z" />
    <glyph glyph-name="Y" unicode="Y" horiz-adv-x="515" 
d="M278 26c0 -12.667 -2.99902 -22.498 -8.99902 -29.498s-16 -10.5 -30 -10.5c-14.667 0 -24.834 3.66699 -30.501 11s-8.5 17 -8.5 29v276l-184 325c-6.66699 12 -9.5 23.167 -8.5 33.5s5.83301 18.166 14.5 23.499s18 7.66602 28 6.99902s18.667 -7.66699 26 -21
l164 -294l159 287c4.66699 8 9.83398 14.167 15.501 18.5s11.167 7.16602 16.5 8.49902s10.333 1.5 15 0.5s8.66699 -2.5 12 -4.5c9.33301 -6.66699 14.166 -14.667 14.499 -24s-3.16699 -20.666 -10.5 -33.999l-184 -326v-276z" />
    <glyph glyph-name="a" unicode="a" horiz-adv-x="539" 
d="M103 252c0.666992 -64 15.001 -113.999 43.001 -149.999s67.333 -54 118 -54c25.333 0 47.166 5.16699 65.499 15.5s33.5 24.666 45.5 42.999s21 39.833 27 64.5s9 51.334 9 80.001s-3.33301 55.834 -10 81.501s-16.334 48 -29.001 67s-28.167 34.167 -46.5 45.5
s-39.5 17 -63.5 17c-27.333 0 -50.833 -4.83301 -70.5 -14.5s-36.167 -23.834 -49.5 -42.501s-23.166 -40.834 -29.499 -66.501s-9.5 -54.5 -9.5 -86.5zM408.001 89.001c-16 -34.667 -37.1631 -61.3271 -63.4961 -79.9941s-59.833 -28 -100.5 -28
c-32.667 0 -62.5 6.5 -89.5 19.5s-50.167 31.333 -69.5 55s-34.333 52.167 -45 85.5s-16 70.333 -16 111c0 49.333 6.16699 91.666 18.5 126.999s28.666 64.333 48.999 87s44.166 39.167 71.499 49.5s56 15.5 86 15.5c40 -0.666992 73.667 -12.334 101 -35.001
s47.333 -51 60 -85v73c0 10.667 3.16699 20 9.5 28s16.166 12 29.499 12c13.333 -0.666992 23 -4.83398 29 -12.501s9 -16.834 9 -27.501v-457c0 -10.667 -2.83301 -19.834 -8.5 -27.501s-15.834 -11.834 -30.501 -12.501c-14.667 0 -25 4 -31 12s-9 17.333 -9 28v62z" />
    <glyph glyph-name="b" unicode="b" horiz-adv-x="555" 
d="M439 252c0 32 -3.16602 60.832 -9.49902 86.499s-16.166 47.834 -29.499 66.501s-30 32.834 -50 42.501s-43.333 14.5 -70 14.5c-24 0 -45.167 -5.5 -63.5 -16.5s-33.833 -26.167 -46.5 -45.5s-22.334 -41.833 -29.001 -67.5s-10 -52.834 -10 -81.501
s3 -55.334 9 -80.001s15 -46.167 27 -64.5s27.167 -32.666 45.5 -42.999s40.166 -15.5 65.499 -15.5c50.667 0 90 18 118 54s42.333 86 43 150zM134.001 25.999c0 -10.667 -2.99902 -20.0039 -8.99902 -28.0039s-16.333 -11.667 -31 -11
c-14.667 0 -24.834 3.83301 -30.501 11.5s-8.5 16.834 -8.5 27.501v669c0 10.667 3 20 9 28s15.667 12 29 12s23.166 -4 29.499 -12s9.5 -17.333 9.5 -28v-284c14 34 35.167 62.333 63.5 85s62.5 34.334 102.5 35.001c28.667 0 56.334 -5.16699 83.001 -15.5
s50.167 -26.833 70.5 -49.5s36.5 -51.667 48.5 -87s18 -77.666 18 -126.999c0 -40.667 -5.33301 -77.667 -16 -111s-25.5 -61.833 -44.5 -85.5s-41.833 -42 -68.5 -55s-55.667 -19.5 -87 -19.5c-40 0 -74 9.33301 -102 28s-50 45.334 -66 80.001v-63z" />
    <glyph glyph-name="c" unicode="c" horiz-adv-x="489" 
d="M24 254c0 35.333 5.83398 69.835 17.501 103.502s28.5 63.5 50.5 89.5s48.833 46.833 80.5 62.5s67.167 23.5 106.5 23.5c34 0 65.333 -5.66699 94 -17s51.667 -25.666 69 -42.999c8 -7.33301 15.167 -16.666 21.5 -27.999s6.83301 -22.666 1.5 -33.999
c-1.33301 -3.33301 -3.66602 -7 -6.99902 -11s-7.5 -7 -12.5 -9s-10.667 -2.16699 -17 -0.5s-12.833 6.5 -19.5 14.5c-18 21.333 -37.667 36.666 -59 45.999s-45.333 14 -72 14c-23.333 0 -45.5 -5.33301 -66.5 -16s-39.667 -25.334 -56 -44.001
s-29.333 -40.834 -39 -66.501s-14.5 -53.834 -14.5 -84.501s5.16699 -59 15.5 -85s23.666 -48.333 39.999 -67s35 -33.167 56 -43.5s42.5 -15.5 64.5 -15.5c28.667 0 53 3.66699 73 11s38 19.666 54 36.999c12 12.667 23.167 18.5 33.5 17.5s19.5 -6.5 27.5 -16.5
c10.667 -6.66699 12.334 -16 5.00098 -28c-2.66699 -13.333 -10.334 -25.5 -23.001 -36.5s-28.334 -20.333 -47.001 -28s-38.834 -13.667 -60.501 -18s-42.5 -6.5 -62.5 -6.5c-39.333 0 -74.666 7.5 -105.999 22.5s-58 35.167 -80 60.5s-38.833 55 -50.5 89
s-17.5 69.667 -17.5 107z" />
    <glyph glyph-name="e" unicode="e" horiz-adv-x="501" 
d="M385 283c0 21.333 -1.83301 42.8301 -5.5 64.4971s-10.5 41.334 -20.5 59.001s-23.833 32 -41.5 43s-40.167 16.5 -67.5 16.5c-29.333 0 -53.5 -6.33301 -72.5 -19s-34.167 -28.167 -45.5 -46.5s-19.333 -38.166 -24 -59.499s-7 -40.666 -7 -57.999h284zM253 -24.0029
c-38.667 0 -72.334 7.33105 -101.001 21.998s-52.5 34.5 -71.5 59.5s-33.167 54.167 -42.5 87.5s-14 68.666 -14 105.999s4.83301 73 14.5 107s24 64 43 90s42.833 46.667 71.5 62s62 23 100 23c36 0 67 -6.66699 93 -20s47.167 -31 63.5 -53s28.5 -47.5 36.5 -76.5
s12 -59.5 12 -91.5c0 -24.667 -3.16699 -42.167 -9.5 -52.5s-18.166 -15.5 -35.499 -15.5h-312c-0.666992 -21.333 2.33301 -42.666 9 -63.999s16.5 -40.666 29.5 -57.999s29.167 -31.5 48.5 -42.5s41.666 -16.5 66.999 -16.5c32.667 0 60.167 4.5 82.5 13.5
s41.833 23.167 58.5 42.5c6.66699 7.33301 13 11.833 19 13.5s11.333 1.83398 16 0.500977s8.5 -3.83301 11.5 -7.5s5.16699 -7.16699 6.5 -10.5c4.66699 -8 3.83398 -18.667 -2.49902 -32s-18 -26.5 -35 -39.5s-38.833 -24.167 -65.5 -33.5s-57.667 -14 -93 -14z" />
    <glyph glyph-name="g" unicode="g" horiz-adv-x="555" 
d="M491 15c0 -29.333 -5.66895 -55.9971 -17.002 -79.9971s-27.333 -44.667 -48 -62s-46 -30.666 -76 -39.999s-63.333 -14 -100 -14c-17.333 0 -36 1.66699 -56 5s-38.833 8.16602 -56.5 14.499s-33 13.833 -46 22.5s-21.5 18.334 -25.5 29.001
c-5.33301 6 -8.33301 13.667 -9 23s3 18.666 11 27.999c10.667 14 23 13.667 37 -1c15.333 -14.667 36.5 -26.834 63.5 -36.501s56.5 -13.834 88.5 -12.501c46.667 1.33301 84.167 12.833 112.5 34.5s42.5 51.5 42.5 89.5v77
c-15.333 -32.667 -37.666 -56.834 -66.999 -72.501s-64.333 -23.5 -105 -23.5c-31.333 0 -60.166 6.16699 -86.499 18.5s-49 30 -68 53s-34 50.667 -45 83s-16.5 68.833 -16.5 109.5c0 49.333 6.5 91.166 19.5 125.499s30 62.333 51 84s45 37.334 72 47.001
s54.5 14.5 82.5 14.5c40 -0.666992 74.333 -11.167 103 -31.5s49.334 -47.5 62.001 -81.5v66c0 10.667 3.16699 20 9.5 28s16.166 12 29.499 12c12.667 0 22.167 -4 28.5 -12s9.5 -17.333 9.5 -28v-469zM102.998 261.003c0 -62.667 14.5 -110.334 43.5 -143.001
s66.5 -49 112.5 -49c50 0 88.333 15.167 115 45.5s40 78.833 40 145.5c-0.666992 66.667 -15 116.834 -43 150.501s-66 50.5 -114 50.5c-48.667 0 -86.5 -17.667 -113.5 -53s-40.5 -84.333 -40.5 -147z" />
    <glyph glyph-name="i" unicode="i" horiz-adv-x="241" 
d="M144 26c0 -26.667 -12.666 -39.999 -37.999 -39.999c-26 0 -39 13.333 -39 40v456c0 15.333 3.66699 26.166 11 32.499s16.666 9.5 27.999 9.5s20.5 -3 27.5 -9s10.5 -17 10.5 -33v-456zM55.001 649.001c0 14 4.83301 26 14.5 36s21.834 15 36.501 15
c14 0 25.833 -5 35.5 -15s14.5 -22 14.5 -36s-4.83301 -26 -14.5 -36s-21.5 -15 -35.5 -15c-14.667 0 -26.834 5 -36.501 15s-14.5 22 -14.5 36z" />
    <glyph glyph-name="l" unicode="l" horiz-adv-x="230" 
d="M55 698c0 13.333 2.83203 22.999 8.49902 28.999s15.5 9 29.5 9c14.667 0 24.834 -3.16699 30.501 -9.5s8.5 -16.166 8.5 -29.499v-676c0 -23.333 -13 -35 -39 -35c-25.333 0 -38 11.667 -38 35v677z" />
    <glyph glyph-name="n" unicode="n" horiz-adv-x="534" 
d="M400 317c0 54 -10.334 91.999 -31.001 113.999s-51 33 -91 33c-17.333 0 -34.666 -2.5 -51.999 -7.5s-33 -13.167 -47 -24.5s-25.5 -26 -34.5 -44s-13.5 -40 -13.5 -66v-300c0 -24 -12.667 -36 -38 -36c-11.333 0 -20.5 3.33301 -27.5 10s-10.5 15.334 -10.5 26.001v466
c0 12 3.5 21 10.5 27s16.5 9 28.5 9c24.667 0 37 -12 37 -36v-56c6 12 14.167 24 24.5 36s22.5 22.833 36.5 32.5s29.667 17.5 47 23.5s36 9 56 9c26 0 50 -3.66699 72 -11s41 -18.5 57 -33.5s28.667 -34.167 38 -57.5s14 -51 14 -83v-326c0 -24 -12.667 -36 -38 -36
s-38 12 -38 36v295z" />
    <glyph glyph-name="r" unicode="r" horiz-adv-x="384" 
d="M275 455c-20 -1.33301 -38.667 -6.5 -56 -15.5s-32.5 -21.667 -45.5 -38s-23.333 -36.5 -31 -60.5s-11.5 -51.333 -11.5 -82v-237c0 -24 -12.667 -36 -38 -36s-38 12 -38 36v466c0 12 3.5 21 10.5 27s16.5 9 28.5 9c11.333 0 20.333 -2.66699 27 -8
s10 -14.666 10 -27.999v-80c8 15.333 17 30.166 27 44.499s21.333 27.166 34 38.499s26.667 20.333 42 27s32.333 10 51 10c15.333 0 25.833 -3.33301 31.5 -10s8.5 -14.667 8.5 -24c0 -16 -5.16699 -26.167 -15.5 -30.5s-21.833 -7.16602 -34.5 -8.49902z" />
    <glyph glyph-name="t" unicode="t" horiz-adv-x="415" 
d="M174 438l0.000976562 -300.998c0 -16 2.16699 -30.333 6.5 -43s11.666 -22.667 21.999 -30s25.5 -11 45.5 -11c15.333 0 28.666 2.33301 39.999 7l33 14c12 5.33301 22.333 7.5 31 6.5s13.667 -7.16699 15 -18.5c2 -10.667 -0.833008 -20.667 -8.5 -30
s-18 -17.333 -31 -24s-28 -12 -45 -16s-33.833 -6 -50.5 -6c-20 0 -38.167 2.16699 -54.5 6.5s-30.5 11.833 -42.5 22.5s-21.333 24.667 -28 42s-10 38.666 -10 63.999v317h-45c-15.333 0 -25 3.16699 -29 9.5s-6 15.5 -6 27.5c0 15.333 3.5 25.166 10.5 29.499
s16.5 6.5 28.5 6.5h41v58c0 20 1.83301 35.667 5.5 47s15.167 17 34.5 17c16.667 0 27 -3.16699 31 -9.5s6 -16.5 6 -30.5v-82h124c21.333 0 36.833 -2 46.5 -6s14.834 -13.667 15.501 -29c0 -15.333 -5.16699 -25.5 -15.5 -30.5s-26.5 -7.5 -48.5 -7.5h-122z" />
    <glyph glyph-name="u" unicode="u" horiz-adv-x="553" 
d="M131 202c0 -54 10.3301 -92.8311 30.9971 -116.498s51 -35.5 91 -35.5c16.667 0 33.834 2.83301 51.501 8.5s33.5 14.5 47.5 26.5s25.5 27.167 34.5 45.5s13.5 40.5 13.5 66.5v291c0 24 12.667 36 38 36c11.333 0 20.5 -3.33301 27.5 -10s10.5 -15.334 10.5 -26.001v-466
c0 -12 -3.66699 -21 -11 -27s-16.666 -9 -27.999 -9c-24.667 0 -37 12 -37 36v59c-6 -12 -14.167 -23.833 -24.5 -35.5s-22.666 -22.334 -36.999 -32.001s-30.166 -17.5 -47.499 -23.5s-36 -9 -56 -9c-24.667 0 -47.834 3.83301 -69.501 11.5s-40.667 19.5 -57 35.5
s-29.333 35.833 -39 59.5s-14.5 51.5 -14.5 83.5v317c0 24 12.333 36 37 36c26 0 39 -12 39 -36v-286z" />
    <glyph glyph-name="uni5341" unicode="&#x5341;" 
d="M460 729c0 15.333 3 26.001 9 32.001s16.333 9 31 9c13.333 0 23.333 -3 30 -9s10 -16.667 10 -32v-310h390c14 0 24.167 -2.83301 30.5 -8.5s9.5 -15.834 9.5 -30.501c0 -15.333 -3.33301 -25.833 -10 -31.5s-16.667 -8.5 -30 -8.5h-390v-469
c0 -27.333 -13.333 -41 -40 -41c-14.667 0 -25 3.16699 -31 9.5s-9 16.833 -9 31.5v469h-390c-26.667 0 -40 13.333 -40 40c0 14 3.16699 24 9.5 30s16.5 9 30.5 9h390v310z" />
    <glyph glyph-name="uni5341" unicode="&#x3038;" 
d="M460 729c0 15.333 3 26.001 9 32.001s16.333 9 31 9c13.333 0 23.333 -3 30 -9s10 -16.667 10 -32v-310h390c14 0 24.167 -2.83301 30.5 -8.5s9.5 -15.834 9.5 -30.501c0 -15.333 -3.33301 -25.833 -10 -31.5s-16.667 -8.5 -30 -8.5h-390v-469
c0 -27.333 -13.333 -41 -40 -41c-14.667 0 -25 3.16699 -31 9.5s-9 16.833 -9 31.5v469h-390c-26.667 0 -40 13.333 -40 40c0 14 3.16699 24 9.5 30s16.5 9 30.5 9h390v310z" />
    <glyph glyph-name="uni5344" unicode="&#x5344;" 
d="M721 352h210c15.333 0 27.166 -2.83301 35.499 -8.5s12.5 -15.167 12.5 -28.5c0 -11.333 -4.66699 -20.333 -14 -27s-20.666 -10 -33.999 -10h-210v-405c0 -13.333 -3.66699 -24 -11 -32s-17 -12 -29 -12c-9.33301 0 -18 4 -26 12s-12 18.667 -12 32v405h-289v-395
c0 -13.333 -3.5 -24 -10.5 -32s-16.5 -12 -28.5 -12c-10 0 -19 4 -27 12s-12 18.667 -12 32v395h-209c-31.333 0 -47 12.333 -47 37s15.667 37 47 37h209v345c0 13.333 4 23.833 12 31.5s17 11.5 27 11.5c12 0 21.5 -3.83301 28.5 -11.5s10.5 -18.167 10.5 -31.5v-345h289
v374c0 14 4 24.833 12 32.5s16.667 11.5 26 11.5c12 0 21.667 -3.83301 29 -11.5s11 -18.5 11 -32.5v-374z" />
    <glyph glyph-name="uni5344" unicode="&#x3039;" 
d="M721 352h210c15.333 0 27.166 -2.83301 35.499 -8.5s12.5 -15.167 12.5 -28.5c0 -11.333 -4.66699 -20.333 -14 -27s-20.666 -10 -33.999 -10h-210v-405c0 -13.333 -3.66699 -24 -11 -32s-17 -12 -29 -12c-9.33301 0 -18 4 -26 12s-12 18.667 -12 32v405h-289v-395
c0 -13.333 -3.5 -24 -10.5 -32s-16.5 -12 -28.5 -12c-10 0 -19 4 -27 12s-12 18.667 -12 32v395h-209c-31.333 0 -47 12.333 -47 37s15.667 37 47 37h209v345c0 13.333 4 23.833 12 31.5s17 11.5 27 11.5c12 0 21.5 -3.83301 28.5 -11.5s10.5 -18.167 10.5 -31.5v-345h289
v374c0 14 4 24.833 12 32.5s16.667 11.5 26 11.5c12 0 21.667 -3.83301 29 -11.5s11 -18.5 11 -32.5v-374z" />
    <glyph glyph-name="uni5345" unicode="&#x5345;" 
d="M273 724c0 -62.667 -0.667969 -122.005 -2.00098 -178.005s-3 -107 -5 -153h215v313c0 15.333 3.66699 25.666 11 30.999s17.666 8 30.999 8c12.667 0 22.167 -2.66699 28.5 -8s9.5 -15.666 9.5 -30.999v-313h219v341c0 16 3.33301 26.833 10 32.5s16.667 8.5 30 8.5
c12 0 21.5 -2.83301 28.5 -8.5s10.5 -16.5 10.5 -32.5v-341h80c15.333 0 26.166 -2.83301 32.499 -8.5s9.5 -15.167 9.5 -28.5s-3.16699 -23.333 -9.5 -30s-17.166 -10 -32.499 -10h-80v-457c0 -16 -3.16699 -26.833 -9.5 -32.5s-15.833 -8.5 -28.5 -8.5
c-13.333 0 -23.5 2.83301 -30.5 8.5s-10.5 16.5 -10.5 32.5v457h-219v-414c0 -15.333 -3.16699 -25.833 -9.5 -31.5s-15.833 -8.5 -28.5 -8.5c-13.333 0 -23.666 2.83301 -30.999 8.5s-11 16.167 -11 31.5v414h-218c-1.33301 -19.333 -2.66602 -36.666 -3.99902 -51.999
s-2.66602 -28.333 -3.99902 -39c-9.33301 -76 -25 -145.833 -47 -209.5s-48 -115.5 -78 -155.5c-12 -16.667 -22.667 -26.5 -32 -29.5s-20.666 0.166992 -33.999 9.5c-9.33301 6.66699 -14.833 15.834 -16.5 27.501s3.16602 25.167 14.499 40.5
c18 24.667 33.5 49.834 46.5 75.501s24.167 52.834 33.5 81.501s17 59.834 23 93.501s11 71.5 15 113.5c0.666992 6.66699 1.16699 13.667 1.5 21s0.833008 15 1.5 23h-122c-16 0 -27 3 -33 9s-9 16 -9 30c0 13.333 3 23 9 29s17 9 33 9h127
c1.33301 38 2.33301 83.667 3 137s1 118 1 194c0 13.333 3 24.333 9 33s16 13 30 13c15.333 0 26.166 -4.16699 32.499 -12.5s9.5 -19.5 9.5 -33.5z" />
    <glyph glyph-name="uni5345" unicode="&#x303a;" 
d="M273 724c0 -62.667 -0.667969 -122.005 -2.00098 -178.005s-3 -107 -5 -153h215v313c0 15.333 3.66699 25.666 11 30.999s17.666 8 30.999 8c12.667 0 22.167 -2.66699 28.5 -8s9.5 -15.666 9.5 -30.999v-313h219v341c0 16 3.33301 26.833 10 32.5s16.667 8.5 30 8.5
c12 0 21.5 -2.83301 28.5 -8.5s10.5 -16.5 10.5 -32.5v-341h80c15.333 0 26.166 -2.83301 32.499 -8.5s9.5 -15.167 9.5 -28.5s-3.16699 -23.333 -9.5 -30s-17.166 -10 -32.499 -10h-80v-457c0 -16 -3.16699 -26.833 -9.5 -32.5s-15.833 -8.5 -28.5 -8.5
c-13.333 0 -23.5 2.83301 -30.5 8.5s-10.5 16.5 -10.5 32.5v457h-219v-414c0 -15.333 -3.16699 -25.833 -9.5 -31.5s-15.833 -8.5 -28.5 -8.5c-13.333 0 -23.666 2.83301 -30.999 8.5s-11 16.167 -11 31.5v414h-218c-1.33301 -19.333 -2.66602 -36.666 -3.99902 -51.999
s-2.66602 -28.333 -3.99902 -39c-9.33301 -76 -25 -145.833 -47 -209.5s-48 -115.5 -78 -155.5c-12 -16.667 -22.667 -26.5 -32 -29.5s-20.666 0.166992 -33.999 9.5c-9.33301 6.66699 -14.833 15.834 -16.5 27.501s3.16602 25.167 14.499 40.5
c18 24.667 33.5 49.834 46.5 75.501s24.167 52.834 33.5 81.501s17 59.834 23 93.501s11 71.5 15 113.5c0.666992 6.66699 1.16699 13.667 1.5 21s0.833008 15 1.5 23h-122c-16 0 -27 3 -33 9s-9 16 -9 30c0 13.333 3 23 9 29s17 9 33 9h127
c1.33301 38 2.33301 83.667 3 137s1 118 1 194c0 13.333 3 24.333 9 33s16 13 30 13c15.333 0 26.166 -4.16699 32.499 -12.5s9.5 -19.5 9.5 -33.5z" />
    <glyph glyph-name="uni3105" unicode="&#x3105;" 
d="M758 462c32 0 54.667 -8.66797 68 -26.001c14 -17.333 21 -44.333 21 -81c0 -18.667 -2 -43.667 -6 -75s-9.66699 -70 -17 -116s-15.166 -85 -23.499 -117s-17.166 -57.667 -26.499 -77c-18.667 -38.667 -47.334 -67 -86.001 -85c-39.333 -18 -77.666 -27 -114.999 -27
c-22 0 -45.833 2.5 -71.5 7.5s-55.5 13.5 -89.5 25.5c-33.333 10.667 -53.333 18.667 -60 24c-6 3.33301 -10.667 8 -14 14c-2.66699 4.66699 -4 11.167 -4 19.5s3.33301 16.833 10 25.5c6.66699 8 14.667 12 24 12s17.333 -1.33301 24 -4c78 -32.667 137 -49 177 -49
c39.333 0 73.666 9.66699 102.999 29c30 19.333 53.333 80 70 182c18 102.667 27 170 27 202c0 14 -2 24.333 -6 31s-14 10 -30 10h-502c-52 0 -78 17.333 -78 52c0 8.66699 2 19.667 6 33l63 213c8.66699 28.667 21.667 43 39 43c15.333 0.666992 27.166 -5 35.499 -17
s7.83301 -28.667 -1.5 -50l-51 -175c-1.33301 -5.33301 -2 -8.66602 -2 -9.99902c0 -9.33301 7.66699 -14 23 -14h493z" />
    <glyph glyph-name="uni3106" unicode="&#x3106;" 
d="M587 44c-75.333 -61.333 -158.335 -108.333 -249.002 -141c-92 -33.333 -150 -50 -174 -50c-22 0 -33 13.667 -33 41c0 11.333 4.16699 20.166 12.5 26.499s22.166 11.833 41.499 16.5c129.333 33.333 242 86.333 338 159l-137 107
c-41.333 31.333 -79.333 58.333 -114 81c-15.333 11.333 -23 23.666 -23 36.999c0 8.66699 3.5 16.834 10.5 24.501s14.5 11.5 22.5 11.5c8.66699 0 17.334 -2.33301 26.001 -7c8.66699 -4 44.667 -29 108 -75l89.5 -66.5l77.5 -60.5
c52.667 52.667 90.334 103.667 113.001 153c23.333 50.667 35 85 35 103c0 8 -4.33301 12 -13 12h-376c-50.667 0 -76 15 -76 45c0 12 4 28 12 48l82 206c10 22.667 22.667 34 38 34c8 0 16.667 -3 26 -9s14 -13.667 14 -23s-2 -19.333 -6 -30l-78 -196h372
c32 0 55.167 -4.66699 69.5 -14s21.5 -24.666 21.5 -45.999c0 -27.333 -13.667 -75 -41 -143c-13.333 -34 -30.833 -66.667 -52.5 -98s-47.5 -62 -77.5 -92l73 -61.5l67 -59l50.5 -47.5c13.667 -13.333 21.834 -22 24.501 -26c4 -6.66699 6 -13.5 6 -20.5
s-4 -14.833 -12 -23.5s-16.833 -13 -26.5 -13s-23.5 8.33301 -41.5 25l-89.5 79.5z" />
    <glyph glyph-name="uni3107" unicode="&#x3107;" 
d="M889 565l-22.999 -607.998c-1.33301 -14.667 -4.83301 -25.167 -10.5 -31.5s-14.834 -9.5 -27.501 -9.5c-12 0 -21.5 3 -28.5 9s-10.167 17.333 -9.5 34l23 602c0 11.333 -5.66699 17 -17 17h-596c-10 0 -15 -5.66699 -15 -17l16 -600c0 -29.333 -13 -44 -39 -44
c-12 0 -21.333 4 -28 12s-10 17.333 -10 28l-15 609c0 32 5.5 54.333 16.5 67s33.5 19 67.5 19h611c18 0 32.667 -2.16699 44 -6.5s20 -10.333 26 -18s10 -16.834 12 -27.501s3 -22.334 3 -35.001z" />
    <glyph glyph-name="uni3108" unicode="&#x3108;" 
d="M834 635c12.667 0 22.666 -3.50098 29.999 -10.501s11 -16.167 11 -27.5c0 -25.333 -13.667 -38 -41 -38h-618c-12.667 0 -19 -7.33301 -19 -22v-554c0 -8 1.33301 -13.333 4 -16s7.66699 -4 15 -4h619c27.333 0 41 -12.667 41 -38s-13.667 -38 -41 -38h-627
c-32 0 -54.167 6.33301 -66.5 19s-18.5 34.334 -18.5 65.001v579c0 32.667 6.33301 55 19 67s35.334 18 68.001 18h624z" />
    <glyph glyph-name="uni3109" unicode="&#x3109;" 
d="M477 426l-193.008 -0.000976562c-18.667 0 -33.667 2.66699 -45 8s-19.166 12.333 -23.499 21s-5.83301 18.5 -4.5 29.5s5.33301 22.5 12 34.5l111 200c12 21.333 25.667 32 41 32c6 0 12 -1.5 18 -4.5s10.5 -7.33301 13.5 -13s4 -13 3 -22s-5.16699 -19.5 -12.5 -31.5
l-85 -161c-2 -4 -3 -8 -3 -12s5 -6 15 -6h503c34 0 57.333 -8.33301 70 -25c12.667 -15.333 19 -40.666 19 -75.999c0 -17.333 -1.66699 -39.333 -5 -66s-8.33301 -58 -15 -94s-14 -70.167 -22 -102.5s-17 -63.5 -27 -93.5c-19.333 -60 -41.666 -102.667 -66.999 -128
s-55 -38 -89 -38c-33.333 0 -72.333 8 -117 24c-44 16 -71.333 28.333 -82 37c-10 8 -15 17.333 -15 28c0 9.33301 2 17.333 6 24s9.16699 11.667 15.5 15s12.833 5.16602 19.5 5.49902s12.334 -1.5 17.001 -5.5c70 -30 117.667 -45 143 -45c12.667 0 23.834 2 33.501 6
s18.334 10.5 26.001 19.5s14.667 20.833 21 35.5s13.166 32.667 20.499 54s14.333 45.833 21 73.5s13.334 58.5 20.001 92.5c13.333 70.667 20 114.667 20 132c0 19.333 -2.66699 32.833 -8 40.5s-14.666 11.5 -27.999 11.5h-248
c-33.333 -106 -74.666 -195.333 -123.999 -268c-50 -72.667 -109.333 -131.667 -178 -177c-69.333 -46 -114.333 -69 -135 -69c-11.333 0 -20 4.16699 -26 12.5s-9 17.5 -9 27.5c0 16.667 11.333 30.334 34 41.001c174.667 84 294.334 228.333 359.001 433z" />
    <glyph glyph-name="uni310A" unicode="&#x310a;" 
d="M377 458l-265.999 0.000976562c-24 0 -36 12.667 -36 38c0 24.667 12 37 36 37h295l37 98.5c9.33301 25.667 15.666 44.834 18.999 57.501c6.66699 24.667 19.667 37 39 37c9.33301 0 18.333 -2.66699 27 -8c8.66699 -4.66699 13 -14 13 -28c0 -12.667 -17 -65 -51 -157
h397c25.333 0 38 -12.667 38 -38c0 -24.667 -12.667 -37 -38 -37h-425c-65.333 -164 -141.333 -317 -228 -459c-5.33301 -8.66699 -8 -16.5 -8 -23.5s8.33301 -9.83301 25 -8.5l507 33c-46.667 83.333 -94.334 159 -143.001 227c-8 8.66699 -12.333 17.167 -13 25.5
s0.666016 15.666 3.99902 21.999s8 11.5 14 15.5s12 6 18 6c7.33301 0 14.333 -1.66699 21 -5c5.33301 -2.66699 11.333 -8.33398 18 -17.001c6 -6.66699 27.333 -38.667 64 -96l39 -62.5l36 -59.5c18.667 -32 34.334 -60 47.001 -84s22.667 -44.333 30 -61
c4 -9.33301 6 -18.333 6 -27c0 -9.33301 -4.83301 -17.333 -14.5 -24s-18.5 -10 -26.5 -10c-13.333 0 -23.666 6.83301 -30.999 20.5l-31 60.5l-549 -39c-29.333 -2 -52.833 -0.166992 -70.5 5.5s-30 14 -37 25s-9.33301 24 -7 39s8.83301 30.5 19.5 46.5
c82.667 132.667 157.667 282.667 225 450z" />
    <glyph glyph-name="uni310B" unicode="&#x310b;" 
d="M785 400c60 0 90.0039 -24.665 90.0039 -73.998c0 -23.333 -7.33301 -67.333 -22 -132c-14 -67.333 -34.333 -129.333 -61 -186c-26 -57.333 -51.667 -96.666 -77 -117.999s-55.333 -32 -90 -32c-38.667 0 -87 12.667 -145 38c-14.667 6 -26.667 11.167 -36 15.5
s-16.333 7.83301 -21 10.5s-8.5 5.66699 -11.5 9s-5.83301 6.66602 -8.5 9.99902c-6 6 -8.33301 13.5 -7 22.5s5.16602 16.833 11.499 23.5s15 10.834 26 12.501s22.833 -1.83301 35.5 -10.5c64.667 -34.667 113.667 -52 147 -52c18 0 33.167 4.16699 45.5 12.5
s25.5 25.166 39.5 50.499c14.667 26 28.667 57 42 93c13.333 35.333 25.666 76.666 36.999 123.999c10.667 45.333 16 77 16 95c0 9.33301 -4.66699 14 -14 14h-172c-22 0 -39.667 3 -53 9s-22.833 14.167 -28.5 24.5s-7.33398 22.166 -5.00098 35.499
s8.16602 27.333 17.499 42l114 173c3.33301 5.33301 5 9.83301 5 13.5s-4 5.5 -12 5.5h-479c-29.333 0 -44 12.333 -44 37c0 26 14.667 39 44 39h490c23.333 0 42 -2.83301 56 -8.5s24 -13.334 30 -23.001s8 -20.667 6 -33s-7.33301 -25.166 -16 -38.499l-114 -179
c-4 -6 -6 -11.333 -6 -16s5 -7 15 -7h155z" />
    <glyph glyph-name="uni310C" unicode="&#x310c;" 
d="M586 392c-11.333 -33.333 -23.9941 -65.502 -37.9941 -96.502s-29.667 -61.5 -47 -91.5c-33.333 -58 -73 -113 -119 -165c-22.667 -25.333 -44.334 -48.166 -65.001 -68.499s-40.667 -38.166 -60 -53.499l-49 -38l-31 -23c-14.667 -10.667 -27.334 -16 -38.001 -16
c-10 0 -18.333 4.5 -25 13.5s-10 17.833 -10 26.5c0 16 12 32 36 48c77.333 52.667 149.333 121.334 216 206.001c34 42.667 63 85.334 87 128.001s43.667 86 59 130h-242c-46 0 -69 16 -69 48c0 10 2 21 6 33l53 171c6.66699 26.667 19 40 37 40c8 0 16.667 -2.33301 26 -7
c10 -4 15 -11.667 15 -23s-2 -23 -6 -35l-42 -133c-1.33301 -4 -2 -8.16699 -2 -12.5s4.33301 -6.5 13 -6.5h234c20 72.667 36 146.334 48 221.001c6.66699 40.667 22 61 46 61s36 -15.667 36 -47c0 -5.33301 -1 -14.833 -3 -28.5s-5.33301 -31.834 -10 -54.501
s-9.83398 -46.5 -15.501 -71.5s-12.167 -51.833 -19.5 -80.5h204c56 0 84 -24 84 -72c0 -38.667 -3 -88.334 -9 -149.001c-2.66699 -30.667 -5.66699 -59.167 -9 -85.5s-7 -50.5 -11 -72.5c-3.33301 -22 -7.16602 -42.5 -11.499 -61.5s-8.83301 -36.5 -13.5 -52.5
c-8.66699 -32 -17.834 -55.5 -27.501 -70.5s-22.167 -26.167 -37.5 -33.5c-16 -7.33301 -35.333 -11 -58 -11c-24 0 -53.667 3.33301 -89 10c-37.333 7.33301 -59.333 15 -66 23c-4.66699 4.66699 -7.66699 11 -9 19s-1 15.667 1 23s5.83301 13.666 11.5 18.999
s13.5 8 23.5 8c3.33301 0 8.33301 -0.666992 15 -2c52 -14 86.667 -21 104 -21s29.666 3.33301 36.999 10s14.333 20.667 21 42c3.33301 10.667 7 23.667 11 39s7.66699 33 11 53c3.33301 20.667 6.66602 43.5 9.99902 68.5s6.66602 52.833 9.99902 83.5
c6 60.667 9 105 9 133c0 16.667 -7.66699 25 -23 25h-209z" />
    <glyph glyph-name="uni310D" unicode="&#x310d;" 
d="M601 296c0 -6.66699 3 -14.999 9 -24.999l77.5 -127l62.5 -106c36.667 -64 58.667 -103 66 -117c7.33301 -14.667 11 -26.334 11 -35.001c0 -4.66699 -1.66699 -9 -5 -13s-7.33301 -7.5 -12 -10.5s-9.5 -5.33301 -14.5 -7s-9.16699 -2.5 -12.5 -2.5
c-13.333 0 -27 13.333 -41 40l-95 170l-111 185c-9.33301 14.667 -14 30.667 -14 48s5.66699 35 17 53c62.667 105.333 122.667 224 180 356c13.333 29.333 27.333 44 42 44c8 0 16.5 -2.66699 25.5 -8s13.5 -13 13.5 -23s-3 -23.333 -9 -40
c-5.33301 -16 -30.333 -68.333 -75 -157c-43.333 -88 -78.333 -154 -105 -198c-6.66699 -10.667 -10 -19.667 -10 -27zM478 -111.999c0 -4 -1.49902 -7.99805 -4.49902 -11.998s-6.83301 -7.5 -11.5 -10.5s-9.33398 -5.5 -14.001 -7.5s-9 -3 -13 -3
c-14.667 0 -29.334 14.333 -44.001 43c-32 62 -64.833 121.833 -98.5 179.5s-68.5 114.167 -104.5 169.5c-9.33301 14.667 -14 30.5 -14 47.5s5.66699 35.167 17 54.5c36 62.667 69 123.5 99 182.5s57.333 117.167 82 174.5c12.667 28 27.334 42 44.001 42
c8 0 16.667 -2.83301 26 -8.5s14 -13.167 14 -22.5c0 -8.66699 -2 -18.334 -6 -29.001c-3.33301 -10.667 -23.333 -53.334 -60 -128.001c-36 -75.333 -78 -154.333 -126 -237c-6.66699 -12.667 -10 -22.5 -10 -29.5s2.66699 -14.833 8 -23.5l81 -129.5
c23.333 -38.333 43.333 -72.5 60 -102.5c34 -59.333 55 -97.333 63 -114c8 -17.333 12 -29.333 12 -36z" />
    <glyph glyph-name="uni310E" unicode="&#x310e;" 
d="M357 608l-229 -0.00195312c-12 0 -20.833 3.66699 -26.5 11s-8.33398 15.5 -8.00098 24.5s3.33301 17.333 9 25s14.167 11.5 25.5 11.5h743c11.333 0 20 -3.83301 26 -11.5s9 -16 9 -25s-2.83301 -17.167 -8.5 -24.5s-14.5 -11 -26.5 -11h-430l-87 -193
c-2 -4 -3 -8.33301 -3 -13s5 -7 15 -7h352c26 0 45.333 -6.33301 58 -19c14 -12 21 -28.667 21 -50c0 -19.333 -7.66699 -62.333 -23 -129c-7.33301 -32.667 -15 -63.5 -23 -92.5s-16.667 -56.5 -26 -82.5c-17.333 -52 -31.333 -86.667 -42 -104
s-23.667 -30.666 -39 -39.999c-14.667 -8.66699 -34.667 -13 -60 -13c-24 0 -59.667 6.66699 -107 20c-44 12.667 -72 23.334 -84 32.001c-10 7.33301 -15 15.333 -15 24s3 18.667 9 30c6 10.667 13.167 16 21.5 16s17.5 -2 27.5 -6c71.333 -24.667 117 -37 137 -37
c19.333 0 33 4.66699 41 14c4.66699 4.66699 9.83398 13.167 15.501 25.5s12.167 28.166 19.5 47.499c7.33301 20 14.833 42.833 22.5 68.5s15.5 54.5 23.5 86.5c16.667 62.667 25 101.334 25 116.001c0 14 -6.33301 21 -19 21h-379c-41.333 0 -62 15 -62 45
c0 12.667 4 28.667 12 48z" />
    <glyph glyph-name="uni310F" unicode="&#x310f;" 
d="M895 682c22.667 0 34 -12.001 34 -36.001c0 -23.333 -11.333 -35 -34 -35h-619c-8.66699 0 -14.667 -1.83301 -18 -5.5s-5 -10.167 -5 -19.5v-181c0 -48 -0.666992 -91.167 -2 -129.5s-3.33301 -73 -6 -104s-6.16699 -59.167 -10.5 -84.5s-9.5 -48.333 -15.5 -69
c-12 -42.667 -28 -80.334 -48 -113.001c-18.667 -32 -32 -51 -40 -57c-7.33301 -5.33301 -14.833 -8 -22.5 -8s-16.167 3.33301 -25.5 10c-8.66699 6 -13 15 -13 27s6 26.667 18 44c16 22.667 29.5 49.334 40.5 80.001s20 65.834 27 105.501s12.167 84.5 15.5 134.5
s5 106 5 168v188c0 32 6.16699 54.167 18.5 66.5s33.5 18.5 63.5 18.5h637z" />
    <glyph glyph-name="uni3110" unicode="&#x3110;" 
d="M660 228c-191.333 -82 -304 -123.001 -338 -123.001c-38.667 0 -58 28 -58 84v434c0 11.333 3.5 20.333 10.5 27s16.5 10 28.5 10c24 0 36 -12.333 36 -37v-418c0 -11.333 3.66699 -17 11 -17c9.33301 0 48 12.333 116 37c35.333 12.667 69 25.334 101 38.001
s63 25.667 93 39v403c0 26.667 12.333 40 37 40c25.333 0 38 -13.333 38 -40v-815c0 -24.667 -12.667 -37 -38 -37c-24.667 0 -37 12.333 -37 37v338z" />
    <glyph glyph-name="uni3111" unicode="&#x3111;" 
d="M702 -118c0 -10 -4.66895 -18.667 -14.002 -26c-4.66699 -4 -9.5 -7.16699 -14.5 -9.5s-10.167 -3.16602 -15.5 -2.49902s-11.333 3.5 -18 8.5s-14 13.167 -22 24.5c-46.667 62.667 -94.5 123.5 -143.5 182.5s-99.5 116.833 -151.5 173.5c-30.667 34 -31 70 -1 108
c18.667 23.333 38.334 50.166 59.001 80.499s42.667 64.5 66 102.5l60.5 101.5c17 29.667 31.167 55.834 42.5 78.501c14 28 29.667 42 47 42c7.33301 0 14 -1.66699 20 -5s10.5 -8 13.5 -14s4.5 -12.5 4.5 -19.5s-2 -13.833 -6 -20.5
c-2 -4.66699 -7.66699 -15.334 -17 -32.001s-22.666 -39.334 -39.999 -68.001c-67.333 -115.333 -127.333 -208 -180 -278c-6 -8 -9 -15 -9 -21s3.66699 -13 11 -21l107.5 -125l95.5 -113l69 -84.5c16 -20.333 25.333 -32.833 28 -37.5
c5.33301 -9.33301 8 -17.666 8 -24.999z" />
    <glyph glyph-name="uni3112" unicode="&#x3112;" 
d="M468 621l-348.999 -0.00195312c-12.667 -1.33301 -21.834 2 -27.501 10s-8.5 16.833 -8.5 26.5s3.16699 18.5 9.5 26.5s15.166 12 26.499 12h760c10 0 19 -4.16699 27 -12.5s12 -17.166 12 -26.499s-3.66699 -17.666 -11 -24.999s-16.666 -11 -27.999 -11h-333v-719
c0 -13.333 -3.5 -24 -10.5 -32s-16.167 -12 -27.5 -12c-26.667 0 -40 14.667 -40 44v719z" />
    <glyph glyph-name="uni3113" unicode="&#x3113;" 
d="M457 147l-231.999 0.000976562c-26 0 -43.667 4.5 -53 13.5s-14 26.833 -14 53.5v353c0 25.333 12.333 38 37 38c14.667 0 24.167 -2.83301 28.5 -8.5s6.5 -15.5 6.5 -29.5v-333c0 -10 5 -15 15 -15h212v478c0 26 13 39 39 39c13.333 0 22.833 -2.83301 28.5 -8.5
s8.5 -15.834 8.5 -30.501v-478h211c8.66699 0 13 5 13 15v333c0 25.333 12.667 38 38 38s38 -12.667 38 -38v-353c0 -24.667 -4.33301 -42 -13 -52s-25.334 -15 -50.001 -15h-237v-198h350c27.333 0 41 -12 41 -36c0 -24.667 -13.667 -37 -41 -37h-769
c-26 0 -39 11.667 -39 35c0 25.333 13 38 39 38h343v198z" />
    <glyph glyph-name="uni3114" unicode="&#x3114;" 
d="M705 754c9.33301 0 17.834 -3.33008 25.501 -9.99707s11.5 -14.334 11.5 -23.001c0 -8 -3.33301 -16.333 -10 -25c-6 -8 -31.333 -28.667 -76 -62c-45.333 -32.667 -97 -66.334 -155 -101.001l-88 -49c-28.667 -15.333 -57.334 -29.666 -86.001 -42.999
c-30.667 -13.333 -50.667 -20 -60 -20c-12 0 -20.333 5 -25 15c-4.66699 9.33301 -7 19.666 -7 30.999c0 10 12.667 20.667 38 32c60 24.667 129.333 60.667 208 108c40 24 75.167 46.667 105.5 68s56.833 41.666 79.5 60.999c14 12 27 18 39 18zM506.001 300.003
l-88.499 -49.501c-31 -17 -64.5 -34.167 -100.5 -51.5l-85 -40.5c-20.667 -9.66699 -33.667 -15.834 -39 -18.501c-11.333 -4 -20.666 -6 -27.999 -6c-8 0 -14.833 4.83301 -20.5 14.5s-8.5 18.167 -8.5 25.5c0 16 12.333 29.333 37 40
c100.667 44.667 211.667 102.667 333 174c60.667 36 114.334 69.667 161.001 101s87 60.333 121 87c11.333 10.667 21.5 16.834 30.5 18.501s16.667 0.833984 23 -2.49902s11.166 -8.33301 14.499 -15s5.66602 -13 6.99902 -19c0 -7.33301 -4 -15 -12 -23
c-6.66699 -7.33301 -40.334 -32.333 -101.001 -75l-86.5 -59l-81.5 -54v-474c0 -15.333 -2.83301 -25.833 -8.5 -31.5s-15.5 -8.5 -29.5 -8.5c-13.333 0 -23 2.83301 -29 8.5s-9 16.167 -9 31.5v427z" />
    <glyph glyph-name="uni3115" unicode="&#x3115;" 
d="M906 417c0 -16 -1.16602 -29.168 -3.49902 -39.501s-6.83301 -18.5 -13.5 -24.5s-15.5 -10.167 -26.5 -12.5s-25.167 -3.5 -42.5 -3.5h-525c-8 0 -13.333 -1.33301 -16 -4s-4 -8 -4 -16v-82c0 -122.667 -18.333 -218.667 -55 -288c-37.333 -70 -67 -105 -89 -105
c-6.66699 0 -13.167 2 -19.5 6s-11.166 9.33301 -14.499 16s-4.5 14.167 -3.5 22.5s5.83301 16.833 14.5 25.5c33.333 39.333 57 84.833 71 136.5s21 115.167 21 190.5v99c0 26 4.66699 44.333 14 55s26.333 16 51 16h545c12.667 0 19 6 19 18v171c0 12 -5.66699 18 -17 18
h-610c-14.667 0 -24.334 2.83301 -29.001 8.5s-7 14.834 -7 27.501c0 24.667 12 37 36 37h621c37.333 0 60.666 -6 69.999 -18c8.66699 -11.333 13 -34 13 -68v-186z" />
    <glyph glyph-name="uni3116" unicode="&#x3116;" 
d="M765 9c0 -15.333 -0.99707 -28 -2.99707 -38s-5.83301 -18 -11.5 -24s-13.334 -10.167 -23.001 -12.5s-21.834 -3.5 -36.501 -3.5h-382c-14 0 -25.833 1.16699 -35.5 3.5s-17.334 6.33301 -23.001 12s-9.66699 13.5 -12 23.5s-3.5 23 -3.5 39v581
c0 29.333 4.83301 49.5 14.5 60.5s29.5 16.5 59.5 16.5h382c28 0 47.333 -5.83301 58 -17.5s16 -31.5 16 -59.5v-581zM690.003 19v561c0 10 -4.66699 15 -14 15h-351c-10 0 -15 -6.33301 -15 -19v-557c0 -10.667 5 -16 15 -16h353c8 0 12 5.33301 12 16zM407.003 491
c10 0 20 -5.33203 30 -15.999c16 -16 51.333 -63 106 -141l51.5 -78.5c15.667 -24.333 29.834 -47.5 42.501 -69.5c6.66699 -12 10 -23.167 10 -33.5s-5.33301 -18.833 -16 -25.5c-10.667 -6 -20.167 -9 -28.5 -9s-17.5 8.33301 -27.5 25
c-26.667 46 -55.834 92.333 -87.501 139s-66.5 95 -104.5 145c-6.66699 6.66699 -10.334 13.667 -11.001 21s0.5 14.166 3.5 20.499s7.33301 11.5 13 15.5s11.834 6.33301 18.501 7z" />
    <glyph glyph-name="uni3117" unicode="&#x3117;" 
d="M390 612l-223.002 0.000976562c-12 -1.33301 -21.167 2.16699 -27.5 10.5s-9.66602 17.666 -9.99902 27.999s2.66699 19.5 9 27.5s15.833 11.333 28.5 10h640c18.667 0 34 -5.66699 46 -17s18 -26.333 18 -45c0 -28 -4 -84.333 -12 -169
c-6.66699 -84.667 -13.667 -148 -21 -190c-6 -41.333 -13 -72.666 -21 -93.999c-8 -20 -19.333 -35.5 -34 -46.5s-33 -16.5 -55 -16.5c-21.333 0 -52.333 7 -93 21c-40 14.667 -60 32.667 -60 54c0 7.33301 1.83301 14.333 5.5 21s8.66699 11.667 15 15s13.5 5 21.5 5
s16 -2.66699 24 -8c34 -16.667 58 -25 72 -25c12.667 0 21.834 3 27.501 9s9.83398 15.333 12.501 28c1.33301 6.66699 3.16602 16.667 5.49902 30s4.83301 30 7.5 50c4.66699 40 9.66699 92 15 156c2.66699 32.667 4.66699 59.667 6 81s2 37.666 2 48.999
c0 10.667 -4.33301 16 -13 16h-307v-726c0 -29.333 -13.333 -44 -40 -44c-26 0 -39 14.667 -39 44v726z" />
    <glyph glyph-name="uni3118" unicode="&#x3118;" 
d="M356 515h-251.002c-14 0 -24.333 4 -31 12s-10 16.833 -10 26.5s3.33301 18.5 10 26.5s17 12 31 12h267c3.33301 16.667 6.16602 33 8.49902 49s4.83301 31.667 7.5 47c5.33301 32.667 10.666 52.334 15.999 59.001c7.33301 7.33301 18.333 11 33 11
c22.667 0 34 -14 34 -42c0 -8.66699 -1.5 -23.167 -4.5 -43.5s-7.83301 -47.166 -14.5 -80.499h442c14 0.666992 24.5 -3 31.5 -11s10.5 -17.167 10.5 -27.5s-3.5 -19.666 -10.5 -27.999s-17.5 -11.833 -31.5 -10.5h-459c-11.333 -47.333 -21.333 -87.333 -30 -120
c-8.66699 -30.667 -13 -48.334 -13 -53.001c0 -2.66699 4.33301 -4 13 -4h304c24.667 0 43.5 -5 56.5 -15s19.5 -24 19.5 -42c0 -12 -5.66699 -31.333 -17 -58c-13.333 -30 -27.166 -58.667 -41.499 -86s-29.166 -53.666 -44.499 -78.999
c-13.333 -23.333 -28.166 -47.333 -44.499 -72s-33.833 -49.667 -52.5 -75c-26.667 -37.333 -44.334 -59.333 -53.001 -66c-7.33301 -6.66699 -16.166 -9.83398 -26.499 -9.50098s-19 3.66602 -26 9.99902s-10.5 15.333 -10.5 27s7 25.5 21 41.5
c54.667 68.667 102.334 140 143.001 214c40.667 73.333 61 115.333 61 126c0 6 -3 9 -9 9h-316c-16 0 -28.5 2.16699 -37.5 6.5s-15.167 10.166 -18.5 17.499s-4.5 16.333 -3.5 27s3.16699 22.334 6.5 35.001c8 29.333 15.333 57.666 22 84.999s12.667 54.333 18 81z" />
    <glyph glyph-name="uni3119" unicode="&#x3119;" 
d="M785 10l-229.504 -26.002c-71 -8 -137.833 -15 -200.5 -21c-124 -12 -189 -18 -195 -18c-37.333 0 -56 14.667 -56 44c0 14.667 4.33301 30.334 13 47.001c135.333 268 234.333 485.333 297 652c8.66699 26 21.334 39 38.001 39s28.334 -6 35.001 -18
s6.66699 -25.333 0 -40c-1.33301 -4.66699 -5.66602 -16.834 -12.999 -36.501s-18.333 -47.5 -33 -83.5c-14 -35.333 -30 -73.333 -48 -114l-60 -131l-64.5 -134.5l-64.5 -125.5c-2.66699 -4.66699 -4 -9 -4 -13s4.33301 -6 13 -6c4.66699 0 21.167 1.16699 49.5 3.5
l121.5 10.5c52.667 4.66699 109.334 10.167 170.001 16.5s125.667 13.5 195 21.5l-76 130.5c-24 39.667 -47.333 75.834 -70 108.501c-19.333 28 -20 48.667 -2 62c13.333 10 25.5 12.833 36.5 8.5s22.167 -15.5 33.5 -33.5l61 -99l49.5 -81.5l48.5 -85.5l38 -70
c9.33301 -17.333 15.333 -29.333 18 -36c12.667 -26.667 11.334 -45.667 -3.99902 -57c-16.667 -12.667 -32.334 -13 -47.001 -1c-6.66699 6 -13 15.333 -19 28s-16.333 32.334 -31 59.001z" />
    <glyph glyph-name="uni311A" unicode="&#x311a;" 
d="M462 389l-146 131l-153 129c-12 9.33301 -19.333 18.5 -22 27.5s-2.5 17.333 0.5 25s7.5 13.834 13.5 18.501s11.667 7 17 7c8 0 16.667 -2.66699 26 -8c4.66699 -2.66699 15.667 -11.334 33 -26.001l73 -62l195 -171c156 132 246 210 270 234c24.667 24 44 36 58 36
c7.33301 0 14.833 -3.5 22.5 -10.5s11.5 -15.167 11.5 -24.5c0 -8.66699 -4 -18.334 -12 -29.001c-6.66699 -9.33301 -41.667 -41.666 -105 -96.999l-90.5 -76.5l-81.5 -66.5c-14 -11.333 -23.333 -22 -28 -32s-7 -24.667 -7 -44v-467c0 -14 -2.83301 -23.833 -8.5 -29.5
s-15.5 -8.5 -29.5 -8.5c-26 0 -39 12.667 -39 38v474c0 4.66699 0.166992 9.66699 0.5 15s0.833008 11 1.5 17z" />
    <glyph glyph-name="uni311B" unicode="&#x311b;" 
d="M514 588l-409.003 -0.00390625c-25.333 0 -38 12.333 -38 37s12.667 37 38 37h788c12 0 21.5 -3.5 28.5 -10.5s10.5 -15.833 10.5 -26.5c0 -24.667 -13 -37 -39 -37h-303v-169c0 -30 -7.33301 -49.333 -22 -58c-14 -9.33301 -41.333 -14.333 -82 -15
c-85.333 -3.33301 -147.666 -17.666 -186.999 -42.999c-40 -25.333 -60 -72.333 -60 -141c0 -67.333 24.667 -114.666 74 -141.999c48.667 -26 115.334 -39 200.001 -39c83.333 0 173 18.667 269 56c12.667 4.66699 24.5 7 35.5 7s19.167 -4.33301 24.5 -13
c6 -8 9 -15.833 9 -23.5s-2.33301 -14.167 -7 -19.5c-5.33301 -6.66699 -14 -12.667 -26 -18c-13.333 -7.33301 -39.333 -16.333 -78 -27c-79.333 -24 -155.333 -36 -228 -36c-112.667 0 -199.5 21.333 -260.5 64s-91.5 109 -91.5 199c0 156 104 237.667 312 245
c14.667 0.666992 25.334 2.33398 32.001 5.00098s10 8.33398 10 17.001v151z" />
    <glyph glyph-name="uni311C" unicode="&#x311c;" 
d="M514 506h-409.002c-25.333 0 -38 12 -38 36s12.667 36 38 36h409v112c0 14.667 2.83301 25.5 8.5 32.5s15.834 10.5 30.501 10.5c24.667 0 37 -14.333 37 -43v-112h303c26 0 39 -12 39 -36s-13 -36 -39 -36h-303v-119c0 -30.667 -7.83301 -51.5 -23.5 -62.5
s-42.167 -17.5 -79.5 -19.5c-80.667 -4 -140.334 -18.167 -179.001 -42.5s-58 -62.833 -58 -115.5c0 -60 24.667 -103.667 74 -131c48.667 -26 112.334 -39 191.001 -39c78 0 166.333 25.667 265 77c15.333 8.66699 28.333 13 39 13c10 0 18 -4.83301 24 -14.5
s9 -18.167 9 -25.5s-5 -15.333 -15 -24c-5.33301 -4.66699 -14.166 -10.334 -26.499 -17.001s-28.166 -14.667 -47.499 -24c-40 -19.333 -82 -34.166 -126 -44.499s-87.333 -15.5 -130 -15.5c-102.667 0 -184.334 21.333 -245.001 64c-60 42 -90 100 -90 174
c0 74.667 24.833 131.167 74.5 169.5s126.5 61.166 230.5 68.499c14 0.666992 23.667 2.83398 29 6.50098s8 11.167 8 22.5v99z" />
    <glyph glyph-name="uni311D" unicode="&#x311d;" 
d="M715 509l182 -0.00390625c12 0 21.5 -3.33301 28.5 -10s10.5 -16 10.5 -28c0 -24 -13 -36 -39 -36h-187c-6 -72 -14 -146 -24 -222c-5.33301 -38 -9.66602 -70.5 -12.999 -97.5s-6.33301 -48.5 -9 -64.5c-5.33301 -31.333 -11.333 -49.333 -18 -54s-13.667 -7 -21 -7
c-26 0 -39 12.667 -39 38v8.5c0 3 0.333008 6.16699 1 9.5c22 128.667 38 258.334 48 389.001h-290v-467c0 -14 6.66699 -21 20 -21h438c11.333 0 20.666 -3.66699 27.999 -11s11 -16.666 11 -27.999c0 -24.667 -13 -37 -39 -37h-449c-30.667 0 -52.5 6.83301 -65.5 20.5
s-19.5 35.834 -19.5 66.501v477h-167c-25.333 0 -38 12.333 -38 37s12.667 37 38 37h167v189c0 16 2.83301 27.5 8.5 34.5s15.5 10.5 29.5 10.5s23.833 -3.66699 29.5 -11s8.5 -19 8.5 -35v-188h295c2.66699 37.333 4.5 72.5 5.5 105.5s1.83301 64.5 2.5 94.5
c0 32.667 13.333 49 40 49c23.333 0 35 -16 35 -48c0 -23.333 -0.666992 -51.666 -2 -84.999s-3.33301 -72 -6 -116z" />
    <glyph glyph-name="uni311E" unicode="&#x311e;" 
d="M525 624h-397.002c-26 0 -39 11.667 -39 35s12.667 35 38 35h745c12 0 21.5 -3.16699 28.5 -9.5s10.5 -14.833 10.5 -25.5c0 -23.333 -12.667 -35 -38 -35h-274c-15.333 -100 -33.333 -184.667 -54 -254h213c52 0 78 -21.333 78 -64c0 -20.667 -11.667 -67 -35 -139
c-11.333 -35.333 -23.333 -69.333 -36 -102s-26.334 -64.334 -41.001 -95.001c-29.333 -62 -47.666 -96.667 -54.999 -104c-15.333 -15.333 -33 -16 -53 -2c-8.66699 6 -13 13.667 -13 23s2.66699 19 8 29c45.333 81.333 81.333 159.666 108 234.999
c27.333 78 41 123.667 41 137c0 8.66699 -4.66699 13 -14 13h-225c-46 -115.333 -108.667 -213.666 -188 -294.999c-78.667 -80.667 -130 -121 -154 -121c-9.33301 0 -17.333 4.33301 -24 13c-7.33301 9.33301 -11 19.333 -11 30s12.333 25.334 37 44.001
c116.667 88 203.334 197.667 260.001 329h-230c-19.333 -1.33301 -34.166 0.5 -44.499 5.5s-17.5 11.5 -21.5 19.5s-5.5 17 -4.5 27s2.83301 19.667 5.5 29l41 162c6 22.667 18 34 36 34c24.667 0 37 -10.667 37 -32c0 -6 -1 -12.333 -3 -19l-35 -141
c-2.66699 -10.667 2 -16 14 -16h232c20 66 39 150.667 57 254z" />
    <glyph glyph-name="uni311F" unicode="&#x311f;" 
d="M833 -85c0 -8 -3.66797 -16.498 -11.001 -25.498s-15.666 -13.5 -24.999 -13.5c-21.333 0 -64.666 31.667 -129.999 95c-64 63.333 -112.667 140 -146 230c-33.333 91.333 -55.333 225.666 -66 402.999c-0.666992 8 -2.33398 13.5 -5.00098 16.5
s-8.33398 3.83301 -17.001 2.5c-137.333 -14 -213 -21 -227 -21c-26.667 0 -40 11.667 -40 35s16.333 36 49 38c32.667 1.33301 63 3.16602 91 5.49902s54 5.16602 78 8.49902s42.667 5.83301 56 7.5s21.666 2.5 24.999 2.5c20.667 0 35.834 -6.33301 45.501 -19
s15.167 -33 16.5 -61c6.66699 -176.667 31.334 -316 74.001 -418c42 -100.667 109.667 -182.667 203 -246c19.333 -13.333 29 -26.666 29 -39.999z" />
    <glyph glyph-name="uni3120" unicode="&#x3120;" 
d="M415 301c-23.333 -0.666992 -46.6699 -1.16992 -70.0029 -1.50293s-47 -0.5 -71 -0.5c-48 0 -78.333 1 -91 3c-9.33301 2 -18.166 5.83301 -26.499 11.5s-14.333 13.167 -18 22.5s-4.16699 20.333 -1.5 33s11 27 25 43l127.5 154.5
c38.333 48.333 72.833 94.5 103.5 138.5c14.667 22.667 29.667 34 45 34c7.33301 0 15.333 -3.5 24 -10.5s13 -15.5 13 -25.5c0 -10.667 -5 -23 -15 -37c-4.66699 -7.33301 -14.167 -20.166 -28.5 -38.499l-56.5 -73.5l-69.5 -87l-69.5 -81c-6 -8 -5 -13.333 3 -16
c3.33301 -0.666992 29 -1 77 -1c47.333 0 103 1 167 3l91.5 98l97.5 110c18 21.333 34.333 32 49 32c8 0 15.833 -3.33301 23.5 -10s11.5 -14.667 11.5 -24c0 -8.66699 -3.33301 -18.334 -10 -29.001c-6 -10 -23.333 -30.333 -52 -61l-145 -154l-127.5 -132l-179.5 -177
c-3.33301 -3.33301 -5 -6.5 -5 -9.5s3 -4.5 9 -4.5c6.66699 0 58.667 4 156 12c49.333 4 99.333 8.5 150 13.5l155 15.5l-48 77c-13.333 20.667 -24.333 36.667 -33 48c-16 22.667 -24 39.334 -24 50.001c0.666992 8 3.33398 15 8.00098 21s10.167 10.333 16.5 13
s13 3.33398 20 2.00098s13.167 -5.66602 18.5 -12.999c8 -8 34.333 -47 79 -117l57 -90l37 -63c18.667 -33.333 28 -56.333 28 -69s-4.5 -22 -13.5 -28s-17.5 -9 -25.5 -9c-16 0 -29.333 11.333 -40 34c-5.33301 11.333 -11.333 23.333 -18 36s-14 25.667 -22 39l-213 -20
c-63.333 -6 -119.666 -11 -168.999 -15c-97.333 -8 -149.333 -12 -156 -12c-24 0 -42.5 4.5 -55.5 13.5s-19.5 21.167 -19.5 36.5c0 26 16.333 53.333 49 82c16.667 15.333 44.167 42.333 82.5 81z" />
    <glyph glyph-name="uni3121" unicode="&#x3121;" 
d="M549 152c-32 -36 -70.667 -73 -116 -111c-44.667 -37.333 -92.334 -73 -143.001 -107c-25.333 -17.333 -46.333 -31 -63 -41s-28.667 -16.667 -36 -20c-14 -6.66699 -26.333 -10 -37 -10c-8.66699 0 -16.167 4.66699 -22.5 14s-9.5 17.666 -9.5 24.999
c0 16 15.333 32.333 46 49c54.667 28.667 111.667 65.667 171 111c30 23.333 57.833 46.666 83.5 69.999s49.5 47.333 71.5 72c-109.333 100.667 -180 162.334 -212 185.001c-31.333 23.333 -47 42.333 -47 57c0 8 3.66699 16.333 11 25s15.333 13 24 13
s17.667 -2.66699 27 -8c4.66699 -2.66699 14.667 -10.667 30 -24l65 -56l79 -68.5l71 -65.5c62 78 111.333 152 148 222c36.667 68.667 55 108 55 118c0 6.66699 -5 10 -15 10h-525c-14 0 -24.167 2.66699 -30.5 8s-9.5 14.666 -9.5 27.999c0 26 13.667 39 41 39h547
c24.667 0 44 -6 58 -18s21 -28 21 -48c0 -9.33301 -2.33301 -20.666 -7 -33.999c-3.33301 -12.667 -18 -44.667 -44 -96c-25.333 -50 -53.166 -98 -83.499 -144s-63.5 -91.333 -99.5 -136l63.5 -61l90.5 -92c70 -71.333 108.333 -112 115 -122
c6.66699 -10.667 10 -20 10 -28c0 -8.66699 -4 -17 -12 -25c-4 -4 -8 -7.16699 -12 -9.5s-8.66699 -3.16602 -14 -2.49902s-11.5 3.16699 -18.5 7.5s-15.5 11.5 -25.5 21.5c-84 92 -166 176 -246 252z" />
    <glyph glyph-name="uni3122" unicode="&#x3122;" 
d="M604 334l76.9971 283.001c2.66699 12 -2 18 -14 18h-511c-12.667 -1.33301 -22.167 2 -28.5 10s-9.5 16.833 -9.5 26.5s3.16699 18.334 9.5 26.001s15.833 11.167 28.5 10.5h526c53.333 0 80 -20.333 80 -61c0 -8.66699 -1.66699 -20.334 -5 -35.001l-73 -278h120
c22.667 0 41.334 -6.5 56.001 -19.5s22 -29.5 22 -49.5c0 -17.333 -13.333 -58.666 -40 -123.999c-13.333 -33.333 -27.166 -63.833 -41.499 -91.5s-29.166 -53.167 -44.499 -76.5c-31.333 -47.333 -56.333 -80.333 -75 -99c-11.333 -10.667 -21 -16 -29 -16
s-16.667 4 -26 12c-8.66699 7.33301 -13 16.166 -13 26.499s8.33301 25.5 25 45.5c46 54 84 115 114 183s45 108 45 120c0 5.33301 -2.33301 9 -7 11s-13 3 -25 3h-518c-48 0 -72 20 -72 60c0 11.333 2 23.666 6 36.999l43 154c6.66699 26 20 39 40 39
c24.667 0 37 -12.333 37 -37c0 -5.33301 -1 -11.333 -3 -18l-42 -145c-3.33301 -10 0.666992 -15 12 -15h336z" />
    <glyph glyph-name="uni3123" unicode="&#x3123;" 
d="M744 358c55.333 0 83 -22.667 83 -68c0 -22.667 -11.667 -68.334 -35 -137.001c-23.333 -67.333 -50.333 -129.333 -81 -186l-38 -69c-10 -17.333 -17.667 -29 -23 -35c-10 -12 -19.5 -18 -28.5 -18s-18.167 3.66699 -27.5 11c-9.33301 6.66699 -14 15 -14 25
s7 25.667 21 47c44 68 78.667 137 104 207c26.667 70 40 114 40 132c0 5.33301 -1.66699 9.16602 -5 11.499s-10 3.5 -20 3.5h-475c-26.667 0 -45.5 4.83301 -56.5 14.5s-16.5 26.834 -16.5 51.501c0 4.66699 0.166992 9.33398 0.5 14.001s0.833008 9.66699 1.5 15l38 309
c4 28.667 16.667 43 38 43c26 0 39 -12.667 39 -38v-7c0 -2.66699 -0.333008 -5.66699 -1 -9l-35 -299c-1.33301 -12 3.66699 -18 15 -18h476z" />
    <glyph glyph-name="uni3124" unicode="&#x3124;" 
d="M474 534l401 0.00195312c23.333 0 35 -12.333 35 -37c0 -24 -11.667 -36 -35 -36h-269v-470c0 -8.66699 1.16699 -14.667 3.5 -18s5.5 -5.33301 9.5 -6c2 -0.666992 6.16699 -1 12.5 -1s15.166 -0.333008 26.499 -1c22.667 -1.33301 46.667 -2 72 -2s52 1 80 3l73 4
c28 0 42 -12 42 -36c0 -12 -3.33301 -21 -10 -27c-3.33301 -3.33301 -7 -5.66602 -11 -6.99902s-9.5 -2.5 -16.5 -3.5s-16 -1.83301 -27 -2.5s-24.833 -1.33398 -41.5 -2.00098c-34 -2 -78.333 -3 -133 -3s-90.334 2 -107.001 6c-16.667 3.33301 -29.5 11.333 -38.5 24
s-13.5 35 -13.5 67v475h-55c-3.33301 -96.667 -21.333 -185.334 -54 -266.001c-33.333 -81.333 -86.333 -156.333 -159 -225c-73.333 -69.333 -122.666 -104 -147.999 -104c-9.33301 0 -17.833 3 -25.5 9s-11.5 13.667 -11.5 23c0 18 10.333 34.333 31 49
c100.667 73.333 172.334 149.666 215.001 228.999c44 80 69 175 75 285h-275c-23.333 0 -35 12.333 -35 37c0 10 3.33301 18.5 10 25.5s15 10.5 25 10.5h278c0.666992 17.333 1 41 1 71v111c0 24.667 12.667 37 38 37s38 -12.333 38 -37z" />
    <glyph glyph-name="uni3125" unicode="&#x3125;" 
d="M849 27c26 0 39 -12 39 -36c0 -24.667 -13 -37 -39 -37h-658c-53.333 0 -80 16.333 -80 49c0 17.333 7.66699 39.666 23 66.999c71.333 126 132.5 239.333 183.5 340s92.5 189.334 124.5 266.001c10.667 28.667 25.334 43 44.001 43c9.33301 0 18 -2.66699 26 -8
s12 -13 12 -23c0 -9.33301 -2.66699 -22 -8 -38c-2.66699 -7.33301 -11.834 -27 -27.501 -59l-66.5 -134l-97 -189l-121 -225c-2 -3.33301 -3 -6.83301 -3 -10.5s4.33301 -5.5 13 -5.5h635z" />
    <glyph glyph-name="uni3126" unicode="&#x3126;" 
d="M608 3c0 -20.667 2.33203 -33.668 6.99902 -39.001c5.33301 -6.66699 17.833 -11.167 37.5 -13.5s43.5 -3.5 71.5 -3.5c69.333 0 109 6.66699 119 20c10.667 12.667 16.667 50.334 18 113.001c0 14 3.33301 25.167 10 33.5s16 12.5 28 12.5c26 0 39 -19 39 -57
c0 -51.333 -5.66699 -94 -17 -128c-11.333 -33.333 -34.333 -53.333 -69 -60c-17.333 -3.33301 -37.666 -5.83301 -60.999 -7.5s-49.666 -2.5 -78.999 -2.5c-56 0 -95.667 2.66699 -119 8c-22 5.33301 -37.667 15.333 -47 30s-14 36 -14 64v718
c-1.33301 13.333 2 23.333 10 30s17.167 10 27.5 10s19.666 -3.33301 27.999 -10s11.833 -16.667 10.5 -30v-688zM380.999 414.999c0 -123.333 -12.667 -223.001 -38 -299.001c-25.333 -74 -67 -137.667 -125 -191c-58 -54 -98 -81 -120 -81c-11.333 0 -20.333 5 -27 15
c-6.66699 8.66699 -10 18.334 -10 29.001c0 9.33301 12 22.666 36 39.999c82 56.667 137.333 121.334 166 194.001c28.667 72 43 171.333 43 298v258c0 33.333 12.333 50 37 50c25.333 0 38 -16.667 38 -50v-263z" />
    <glyph glyph-name="uni3127" unicode="&#x3127;" 
d="M919 366c14.667 0.666992 25.668 -3.16602 33.001 -11.499s11 -17.5 11 -27.5s-3.66699 -19.333 -11 -28s-18.333 -12.334 -33 -11.001h-839c-29.333 0 -44 13 -44 39c0 12 3.66699 21.5 11 28.5s17.666 10.5 30.999 10.5h841z" />
    <glyph glyph-name="uni3128" unicode="&#x3128;" 
d="M541 208c-18.667 -22.667 -38.6709 -45.165 -60.0039 -67.498s-44 -44.833 -68 -67.5s-48.667 -44.334 -74 -65.001s-51.333 -40.667 -78 -60l-64 -46c-16 -11.333 -27.333 -18.333 -34 -21c-8 -5.33301 -15.667 -8.33301 -23 -9s-13.666 0.5 -18.999 3.5
s-9.66602 7.33301 -12.999 13s-5.33301 12.167 -6 19.5c0 15.333 10.667 29.666 32 42.999c28 17.333 56.833 37.166 86.5 59.499s60.5 47.833 92.5 76.5c64 56 121.333 114 172 174l-167 153l-135 117c-18 14.667 -27 30 -27 46c0 8.66699 3.33301 16.334 10 23.001
s14 10 22 10s16.667 -3 26 -9c10 -6 50.667 -40.667 122 -104l195 -177c32.667 45.333 64.334 94.666 95.001 147.999s60.667 111.333 90 174c10.667 24.667 23.334 37 38.001 37c8 0 17 -3 27 -9c10 -5.33301 15 -13.166 15 -23.499s-2.66699 -21.833 -8 -34.5l-13 -28.5
c-6 -13 -14 -29.167 -24 -48.5c-20 -40 -44 -83 -72 -129s-58.333 -92 -91 -138l225 -215l49 -48l21 -21c4 -4 7.33301 -9.33301 10 -16c2.66699 -5.33301 4 -12 4 -20c0 -7.33301 -4 -15 -12 -23s-16.333 -12 -25 -12c-14.667 0 -32 11.667 -52 35
c-10 11.333 -37.167 38.5 -81.5 81.5z" />
    <glyph glyph-name="uni3129" unicode="&#x3129;" 
d="M855 20c0 -30 -6.16699 -51.167 -18.5 -63.5s-33.5 -18.5 -63.5 -18.5h-545c-32.667 0 -54.667 5.83301 -66 17.5s-17 33.834 -17 66.501v605c0 26 12.333 39 37 39c25.333 0 38 -13 38 -39v-596c0 -8.66699 1 -14.334 3 -17.001s6.66699 -4 14 -4h528c10 0 15 7 15 21
v593c0 26 12.333 39 37 39c12 0 21.333 -3.5 28 -10.5s10 -16.5 10 -28.5v-604z" />
    <glyph glyph-name="uni3220" unicode="&#x3220;" 
d="M802 754c10 0 19.3311 -4.33398 27.998 -13.001c8.66699 -7.33301 28.667 -35 60 -83c15.333 -23.333 29 -48.333 41 -75s22.667 -55 32 -85c18 -59.333 27 -125.666 27 -198.999c0 -74 -9 -140.333 -27 -199c-18 -58 -42.667 -110.667 -74 -158
c-31.333 -48 -51.333 -76 -60 -84c-9.33301 -8 -18.333 -12 -27 -12c-7.33301 0 -14.166 2 -20.499 6s-11 9.33301 -14 16s-3.83301 14.5 -2.5 23.5s6 18.5 14 28.5c45.333 58.667 78.333 118.167 99 178.5s31 127.5 31 201.5c0 75.333 -9.33301 140 -28 194
c-18 56 -52 118 -102 186c-9.33301 10 -14.5 19.5 -15.5 28.5s0.166992 16.667 3.5 23s8.33301 11.5 15 15.5s13.334 6.33301 20.001 7zM236.998 -117.001c-0.666992 -8 -3.33203 -15.001 -7.99902 -21.001s-10.334 -10.333 -17.001 -13s-13.834 -3.33398 -21.501 -2.00098
s-14.5 5.33301 -20.5 12c-9.33301 8.66699 -29.333 36.667 -60 84c-30.667 46.667 -55 99 -73 157s-27 124 -27 198s9 140.667 27 200c18.667 60.667 43 114.334 73 161.001c31.333 48.667 51.333 76.334 60 83.001c7.33301 8 16.333 11.833 27 11.5
s19.667 -3.83301 27 -10.5s11.5 -15.5 12.5 -26.5s-4.16699 -23.167 -15.5 -36.5c-49.333 -67.333 -83.666 -129.333 -102.999 -186c-18 -55.333 -27 -120 -27 -194s10.333 -141.167 31 -201.5s53.667 -119.833 99 -178.5c10.667 -12.667 16 -25 16 -37zM778 375.998
c16 1.33301 27.833 -2.50098 35.5 -11.501s11.5 -19.167 11.5 -30.5s-3.83301 -21.5 -11.5 -30.5s-19.5 -12.833 -35.5 -11.5h-571c-31.333 0 -47 14 -47 42c0 12.667 4 22.834 12 30.501s19 11.5 33 11.5h573z" />
    <glyph glyph-name="uni3221" unicode="&#x3221;" 
d="M802 754c10 0 19.3311 -4.33398 27.998 -13.001c8.66699 -7.33301 28.667 -35 60 -83c15.333 -23.333 29 -48.333 41 -75s22.667 -55 32 -85c18 -59.333 27 -125.666 27 -198.999c0 -74 -9 -140.333 -27 -199c-18 -58 -42.667 -110.667 -74 -158
c-31.333 -48 -51.333 -76 -60 -84c-9.33301 -8 -18.333 -12 -27 -12c-7.33301 0 -14.166 2 -20.499 6s-11 9.33301 -14 16s-3.83301 14.5 -2.5 23.5s6 18.5 14 28.5c45.333 58.667 78.333 118.167 99 178.5s31 127.5 31 201.5c0 75.333 -9.33301 140 -28 194
c-18 56 -52 118 -102 186c-9.33301 10 -14.5 19.5 -15.5 28.5s0.166992 16.667 3.5 23s8.33301 11.5 15 15.5s13.334 6.33301 20.001 7zM236.998 -117.001c-0.666992 -8 -3.33203 -15.001 -7.99902 -21.001s-10.334 -10.333 -17.001 -13s-13.834 -3.33398 -21.501 -2.00098
s-14.5 5.33301 -20.5 12c-9.33301 8.66699 -29.333 36.667 -60 84c-30.667 46.667 -55 99 -73 157s-27 124 -27 198s9 140.667 27 200c18.667 60.667 43 114.334 73 161.001c31.333 48.667 51.333 76.334 60 83.001c7.33301 8 16.333 11.833 27 11.5
s19.667 -3.83301 27 -10.5s11.5 -15.5 12.5 -26.5s-4.16699 -23.167 -15.5 -36.5c-49.333 -67.333 -83.666 -129.333 -102.999 -186c-18 -55.333 -27 -120 -27 -194s10.333 -141.167 31 -201.5s53.667 -119.833 99 -178.5c10.667 -12.667 16 -25 16 -37zM743 550.998
c15.333 1.33301 26.833 -2.5 34.5 -11.5s11.5 -19 11.5 -30s-3.83301 -20.833 -11.5 -29.5s-19.167 -12.334 -34.5 -11.001h-492c-15.333 -1.33301 -26.833 2.33398 -34.5 11.001s-11.5 18.5 -11.5 29.5s3.66699 21 11 30s18.333 12.833 33 11.5h494zM787 140.998
c15.333 1.33301 26.833 -2.49902 34.5 -11.499s11.5 -19 11.5 -30s-3.83301 -20.833 -11.5 -29.5s-19.167 -12.334 -34.5 -11.001h-570c-31.333 0 -47 13.667 -47 41c0 12.667 4 22.667 12 30s19 11 33 11h572z" />
    <glyph glyph-name="uni3222" unicode="&#x3222;" 
d="M802 754c10 0 19.3311 -4.33398 27.998 -13.001c8.66699 -7.33301 28.667 -35 60 -83c15.333 -23.333 29 -48.333 41 -75s22.667 -55 32 -85c18 -59.333 27 -125.666 27 -198.999c0 -74 -9 -140.333 -27 -199c-18 -58 -42.667 -110.667 -74 -158
c-31.333 -48 -51.333 -76 -60 -84c-9.33301 -8 -18.333 -12 -27 -12c-7.33301 0 -14.166 2 -20.499 6s-11 9.33301 -14 16s-3.83301 14.5 -2.5 23.5s6 18.5 14 28.5c45.333 58.667 78.333 118.167 99 178.5s31 127.5 31 201.5c0 75.333 -9.33301 140 -28 194
c-18 56 -52 118 -102 186c-9.33301 10 -14.5 19.5 -15.5 28.5s0.166992 16.667 3.5 23s8.33301 11.5 15 15.5s13.334 6.33301 20.001 7zM236.998 -117.001c-0.666992 -8 -3.33203 -15.001 -7.99902 -21.001s-10.334 -10.333 -17.001 -13s-13.834 -3.33398 -21.501 -2.00098
s-14.5 5.33301 -20.5 12c-9.33301 8.66699 -29.333 36.667 -60 84c-30.667 46.667 -55 99 -73 157s-27 124 -27 198s9 140.667 27 200c18.667 60.667 43 114.334 73 161.001c31.333 48.667 51.333 76.334 60 83.001c7.33301 8 16.333 11.833 27 11.5
s19.667 -3.83301 27 -10.5s11.5 -15.5 12.5 -26.5s-4.16699 -23.167 -15.5 -36.5c-49.333 -67.333 -83.666 -129.333 -102.999 -186c-18 -55.333 -27 -120 -27 -194s10.333 -141.167 31 -201.5s53.667 -119.833 99 -178.5c10.667 -12.667 16 -25 16 -37zM739 583.998
c26.667 0 40 -12.667 40 -38s-14 -38 -42 -38h-483c-26.667 0 -40 12.667 -40 38s13.333 38 40 38h485zM685 347.998c12.667 0 22.5 -3.5 29.5 -10.5s10.5 -16.5 10.5 -28.5c0 -25.333 -14 -38 -42 -38h-386c-26.667 0 -40 12.667 -40 38c0 26 13.333 39 40 39h388z
M772 108.998c12 0 21.667 -3.66699 29 -11s11 -17 11 -29c0 -26 -14 -39 -42 -39h-543c-26.667 0 -40 13 -40 39c0 26.667 13.333 40 40 40h545z" />
    <glyph glyph-name="uni3223" unicode="&#x3223;" 
d="M796 97c0 -35.333 -6.16895 -59.833 -18.502 -73.5s-37.166 -20.5 -74.499 -20.5h-405c-41.333 0 -67.333 6 -78 18c-10.667 11.333 -16 35 -16 71v409c0 37.333 6 62 18 74c12.667 12.667 38 19 76 19h399c38.667 0 64.834 -7 78.501 -21s20.5 -38 20.5 -72v-404z
M716.998 105l-0.00292969 65.001h-68c-48 0 -79 7.33301 -93 22c-13.333 15.333 -20 44 -20 86v245h-76c0 -44 -1.33301 -82.333 -4 -115s-7.16699 -61.5 -13.5 -86.5s-14.666 -46.833 -24.999 -65.5s-23.166 -36.334 -38.499 -53.001
c-27.333 -28 -44.666 -43.333 -51.999 -46c-9.33301 -3.33301 -18.333 -4 -27 -2c-7.33301 2 -13.333 5 -18 9v-59c0 -19.333 11.333 -29 34 -29h367c22.667 0 34 9.66699 34 29zM236.995 -116.999c-0.666992 -8 -3.33203 -15.001 -7.99902 -21.001
s-10.334 -10.333 -17.001 -13s-13.834 -3.33398 -21.501 -2.00098s-14.5 5.33301 -20.5 12c-9.33301 8.66699 -29.333 36.667 -60 84c-30.667 46.667 -55 99 -73 157s-27 124 -27 198s9 140.667 27 200c18.667 60.667 43 114.334 73 161.001
c31.333 48.667 51.333 76.334 60 83.001c7.33301 8 16.333 11.833 27 11.5s19.667 -3.83301 27 -10.5s11.5 -15.5 12.5 -26.5s-4.16699 -23.167 -15.5 -36.5c-49.333 -67.333 -83.666 -129.333 -102.999 -186c-18 -55.333 -27 -120 -27 -194s10.333 -141.167 31 -201.5
s53.667 -119.833 99 -178.5c10.667 -12.667 16 -25 16 -37zM801.997 754c10 0 19.3311 -4.33398 27.998 -13.001c8.66699 -7.33301 28.667 -35 60 -83c15.333 -23.333 29 -48.333 41 -75s22.667 -55 32 -85c18 -59.333 27 -125.666 27 -198.999c0 -74 -9 -140.333 -27 -199
c-18 -58 -42.667 -110.667 -74 -158c-31.333 -48 -51.333 -76 -60 -84c-9.33301 -8 -18.333 -12 -27 -12c-7.33301 0 -14.166 2 -20.499 6s-11 9.33301 -14 16s-3.83301 14.5 -2.5 23.5s6 18.5 14 28.5c45.333 58.667 78.333 118.167 99 178.5s31 127.5 31 201.5
c0 75.333 -9.33301 140 -28 194c-18 56 -52 118 -102 186c-9.33301 10 -14.5 19.5 -15.5 28.5s0.166992 16.667 3.5 23s8.33301 11.5 15 15.5s13.334 6.33301 20.001 7zM716.995 240.999v252.001c0 20 -11.333 30 -34 30h-70v-243c0 -14.667 3 -24.834 9 -30.501
s16.667 -8.5 32 -8.5h63zM309.995 239c12.667 10.667 23.667 23.002 33 37.002s17 31.667 23 53s10.333 47.666 13 78.999s4 69.666 4 114.999h-67c-22.667 0 -34 -10 -34 -30v-281l11.5 12c4.33301 4.66699 9.83301 9.66699 16.5 15z" />
    <glyph glyph-name="uni3224" unicode="&#x3224;" 
d="M802 754c10 0 19.3311 -4.33398 27.998 -13.001c8.66699 -7.33301 28.667 -35 60 -83c15.333 -23.333 29 -48.333 41 -75s22.667 -55 32 -85c18 -59.333 27 -125.666 27 -198.999c0 -74 -9 -140.333 -27 -199c-18 -58 -42.667 -110.667 -74 -158
c-31.333 -48 -51.333 -76 -60 -84c-9.33301 -8 -18.333 -12 -27 -12c-7.33301 0 -14.166 2 -20.499 6s-11 9.33301 -14 16s-3.83301 14.5 -2.5 23.5s6 18.5 14 28.5c45.333 58.667 78.333 118.167 99 178.5s31 127.5 31 201.5c0 75.333 -9.33301 140 -28 194
c-18 56 -52 118 -102 186c-9.33301 10 -14.5 19.5 -15.5 28.5s0.166992 16.667 3.5 23s8.33301 11.5 15 15.5s13.334 6.33301 20.001 7zM236.998 -117.001c-0.666992 -8 -3.33203 -15.001 -7.99902 -21.001s-10.334 -10.333 -17.001 -13s-13.834 -3.33398 -21.501 -2.00098
s-14.5 5.33301 -20.5 12c-9.33301 8.66699 -29.333 36.667 -60 84c-30.667 46.667 -55 99 -73 157s-27 124 -27 198s9 140.667 27 200c18.667 60.667 43 114.334 73 161.001c31.333 48.667 51.333 76.334 60 83.001c7.33301 8 16.333 11.833 27 11.5
s19.667 -3.83301 27 -10.5s11.5 -15.5 12.5 -26.5s-4.16699 -23.167 -15.5 -36.5c-49.333 -67.333 -83.666 -129.333 -102.999 -186c-18 -55.333 -27 -120 -27 -194s10.333 -141.167 31 -201.5s53.667 -119.833 99 -178.5c10.667 -12.667 16 -25 16 -37zM726 93.998h46.999
c12.667 0 22.834 -3.5 30.501 -10.5s11.5 -16.167 11.5 -27.5c-5.33301 -23.333 -19.333 -35 -42 -35h-548c-20.667 0 -34.667 11.667 -42 35c0 25.333 13.333 38 40 38h126l36 229h-121c-28 0 -42 12.333 -42 37s14 37 42 37h131l15 121h-161c-28 0 -42 11.667 -42 35
c0 24.667 13.333 37 40 37h500c28 0 42 -12.333 42 -37c0 -23.333 -14 -35 -42 -35h-254l-15 -121h148c40 0 67.167 -7 81.5 -21s20.5 -39.667 18.5 -77v-205zM644.999 284.998c0.666992 14 -1.33301 23.833 -6 29.5s-14.667 8.5 -30 8.5h-141l-37 -229h214v191z" />
    <glyph glyph-name="uni3225" unicode="&#x3225;" 
d="M802 754c10 0 19.3311 -4.33398 27.998 -13.001c8.66699 -7.33301 28.667 -35 60 -83c15.333 -23.333 29 -48.333 41 -75s22.667 -55 32 -85c18 -59.333 27 -125.666 27 -198.999c0 -74 -9 -140.333 -27 -199c-18 -58 -42.667 -110.667 -74 -158
c-31.333 -48 -51.333 -76 -60 -84c-9.33301 -8 -18.333 -12 -27 -12c-7.33301 0 -14.166 2 -20.499 6s-11 9.33301 -14 16s-3.83301 14.5 -2.5 23.5s6 18.5 14 28.5c45.333 58.667 78.333 118.167 99 178.5s31 127.5 31 201.5c0 75.333 -9.33301 140 -28 194
c-18 56 -52 118 -102 186c-9.33301 10 -14.5 19.5 -15.5 28.5s0.166992 16.667 3.5 23s8.33301 11.5 15 15.5s13.334 6.33301 20.001 7zM236.998 -117.001c-0.666992 -8 -3.33203 -15.001 -7.99902 -21.001s-10.334 -10.333 -17.001 -13s-13.834 -3.33398 -21.501 -2.00098
s-14.5 5.33301 -20.5 12c-9.33301 8.66699 -29.333 36.667 -60 84c-30.667 46.667 -55 99 -73 157s-27 124 -27 198s9 140.667 27 200c18.667 60.667 43 114.334 73 161.001c31.333 48.667 51.333 76.334 60 83.001c7.33301 8 16.333 11.833 27 11.5
s19.667 -3.83301 27 -10.5s11.5 -15.5 12.5 -26.5s-4.16699 -23.167 -15.5 -36.5c-49.333 -67.333 -83.666 -129.333 -102.999 -186c-18 -55.333 -27 -120 -27 -194s10.333 -141.167 31 -201.5s53.667 -119.833 99 -178.5c10.667 -12.667 16 -25 16 -37zM479 678.998
c9.33301 0 18.333 -3.66992 27 -11.0029c8 -6.66699 19.333 -27 34 -61c12 -24.667 19.167 -43.834 21.5 -57.501s1.5 -24.167 -2.5 -31.5s-9.83301 -12.166 -17.5 -14.499s-15.5 -4.16602 -23.5 -5.49902c-17.333 0 -29.333 9.33301 -36 28
c-6 16.667 -12.5 32.834 -19.5 48.501s-14.833 31.167 -23.5 46.5c-3.33301 6.66699 -5 14 -5 22c0 8.66699 5 16.834 15 24.501s20 11.5 30 11.5zM798 485.995c13.333 0 23.833 -3.5 31.5 -10.5s11.5 -16.5 11.5 -28.5c0 -24.667 -14.333 -37 -43 -37h-589
c-28.667 0 -43 12.333 -43 37c0 12 3.83301 21.5 11.5 28.5s18.167 10.5 31.5 10.5h589zM628 357.995c14 0 26.0029 -7.33398 36.0029 -22.001c3.33301 -4 8.16602 -11.167 14.499 -21.5s14.166 -24.166 23.499 -41.499c10 -16.667 21.667 -38 35 -64l36 -72
c10.667 -21.333 18.834 -38.5 24.501 -51.5s9.16699 -21.833 10.5 -26.5c3.33301 -10 5 -19 5 -27c0 -4.66699 -1.66699 -9.16699 -5 -13.5s-7.33301 -8.16602 -12 -11.499s-9.83398 -6 -15.501 -8s-10.834 -3 -15.501 -3c-16.667 0 -30 10.667 -40 32
c-20 45.333 -41.667 90.666 -65 135.999s-45 84.333 -65 117c-8 10 -12.333 19.5 -13 28.5s1 17 5 24s9.66699 12.667 17 17s15.333 6.83301 24 7.5zM421.003 314.994c0 -8.66699 -4.5 -23.668 -13.5 -45.001s-21.833 -47.333 -38.5 -78c-8 -15.333 -18.167 -32 -30.5 -50
l-32.5 -49c-18.667 -28 -33.334 -47.667 -44.001 -59c-9.33301 -11.333 -16.666 -18.333 -21.999 -21s-12 -4 -20 -4c-6 0.666992 -12.5 3.16699 -19.5 7.5s-12.333 9.83301 -16 16.5s-4.83398 14.5 -3.50098 23.5s7 18.833 17 29.5c24.667 32 49.334 68.167 74.001 108.5
s46 81.833 64 124.5c10 23.333 24 35 42 35c10 0 19.667 -3.16699 29 -9.5s14 -16.166 14 -29.499z" />
    <glyph glyph-name="uni3226" unicode="&#x3226;" 
d="M802 754c10 0 19.3311 -4.33398 27.998 -13.001c8.66699 -7.33301 28.667 -35 60 -83c15.333 -23.333 29 -48.333 41 -75s22.667 -55 32 -85c18 -59.333 27 -125.666 27 -198.999c0 -74 -9 -140.333 -27 -199c-18 -58 -42.667 -110.667 -74 -158
c-31.333 -48 -51.333 -76 -60 -84c-9.33301 -8 -18.333 -12 -27 -12c-7.33301 0 -14.166 2 -20.499 6s-11 9.33301 -14 16s-3.83301 14.5 -2.5 23.5s6 18.5 14 28.5c45.333 58.667 78.333 118.167 99 178.5s31 127.5 31 201.5c0 75.333 -9.33301 140 -28 194
c-18 56 -52 118 -102 186c-9.33301 10 -14.5 19.5 -15.5 28.5s0.166992 16.667 3.5 23s8.33301 11.5 15 15.5s13.334 6.33301 20.001 7zM236.998 -117.001c-0.666992 -8 -3.33203 -15.001 -7.99902 -21.001s-10.334 -10.333 -17.001 -13s-13.834 -3.33398 -21.501 -2.00098
s-14.5 5.33301 -20.5 12c-9.33301 8.66699 -29.333 36.667 -60 84c-30.667 46.667 -55 99 -73 157s-27 124 -27 198s9 140.667 27 200c18.667 60.667 43 114.334 73 161.001c31.333 48.667 51.333 76.334 60 83.001c7.33301 8 16.333 11.833 27 11.5
s19.667 -3.83301 27 -10.5s11.5 -15.5 12.5 -26.5s-4.16699 -23.167 -15.5 -36.5c-49.333 -67.333 -83.666 -129.333 -102.999 -186c-18 -55.333 -27 -120 -27 -194s10.333 -141.167 31 -201.5s53.667 -119.833 99 -178.5c10.667 -12.667 16 -25 16 -37zM784 464.998
c26.667 2 40.666 -9.66797 41.999 -35.001c2 -25.333 -11 -39 -39 -41l-412 -27v-226c0 -32 5.66699 -52 17 -60c13.333 -7.33301 59.666 -11 138.999 -11c40.667 0 71.5 0.5 92.5 1.5s35.833 2.83301 44.5 5.5c18 4.66699 30.167 14.834 36.5 30.501s9.5 42.167 9.5 79.5
c0 16.667 3.33301 28.334 10 35.001s17.334 10 32.001 10c15.333 0 26 -3.83301 32 -11.5s9 -19.834 9 -36.501c0 -42 -4.66699 -75.667 -14 -101s-24.333 -45 -45 -59c-22 -14 -46 -22.333 -72 -25c-13.333 -1.33301 -30.833 -2.33301 -52.5 -3s-50.834 -1 -87.501 -1
s-66.667 0.5 -90 1.5s-40.666 2.16699 -51.999 3.5c-21.333 3.33301 -38.666 10 -51.999 20s-22.833 24.167 -28.5 42.5s-8.5 42.833 -8.5 73.5v225l-105 -7c-26.667 -2 -40.667 9.66699 -42 35c-2 25.333 10.333 39 37 41l110 7v169c0 10 4 18.833 12 26.5
s17.333 11.5 28 11.5s20 -3.83301 28 -11.5s12 -16.5 12 -26.5v-163z" />
    <glyph glyph-name="uni3227" unicode="&#x3227;" 
d="M802 754c10 0 19.3311 -4.33398 27.998 -13.001c8.66699 -7.33301 28.667 -35 60 -83c15.333 -23.333 29 -48.333 41 -75s22.667 -55 32 -85c18 -59.333 27 -125.666 27 -198.999c0 -74 -9 -140.333 -27 -199c-18 -58 -42.667 -110.667 -74 -158
c-31.333 -48 -51.333 -76 -60 -84c-9.33301 -8 -18.333 -12 -27 -12c-7.33301 0 -14.166 2 -20.499 6s-11 9.33301 -14 16s-3.83301 14.5 -2.5 23.5s6 18.5 14 28.5c45.333 58.667 78.333 118.167 99 178.5s31 127.5 31 201.5c0 75.333 -9.33301 140 -28 194
c-18 56 -52 118 -102 186c-9.33301 10 -14.5 19.5 -15.5 28.5s0.166992 16.667 3.5 23s8.33301 11.5 15 15.5s13.334 6.33301 20.001 7zM236.998 -117.001c-0.666992 -8 -3.33203 -15.001 -7.99902 -21.001s-10.334 -10.333 -17.001 -13s-13.834 -3.33398 -21.501 -2.00098
s-14.5 5.33301 -20.5 12c-9.33301 8.66699 -29.333 36.667 -60 84c-30.667 46.667 -55 99 -73 157s-27 124 -27 198s9 140.667 27 200c18.667 60.667 43 114.334 73 161.001c31.333 48.667 51.333 76.334 60 83.001c7.33301 8 16.333 11.833 27 11.5
s19.667 -3.83301 27 -10.5s11.5 -15.5 12.5 -26.5s-4.16699 -23.167 -15.5 -36.5c-49.333 -67.333 -83.666 -129.333 -102.999 -186c-18 -55.333 -27 -120 -27 -194s10.333 -141.167 31 -201.5s53.667 -119.833 99 -178.5c10.667 -12.667 16 -25 16 -37zM373 630.998
c28.667 0 42.999 -19.002 42.999 -57.002c0 -44 -1.66699 -85 -5 -123s-8.33301 -73.333 -15 -106c-6.66699 -32 -15.667 -64.667 -27 -98s-25.333 -66.333 -42 -99s-30.5 -58.667 -41.5 -78s-19.167 -31.666 -24.5 -36.999c-12 -10.667 -23.5 -16 -34.5 -16
s-20 3.33301 -27 10s-11 16 -12 28s2.83301 24.667 11.5 38c23.333 40 43.333 78.333 60 115s30.334 71.334 41.001 104.001c20.667 62.667 31 150.667 31 264c0 36.667 14 55 42 55zM625.999 630.996c-28.667 0 -42.998 -19 -42.998 -57c0 -90 6.33301 -166.333 19 -229
c6.66699 -32 15.167 -64.333 25.5 -97s23.833 -65.334 40.5 -98.001s30.5 -58.667 41.5 -78s19.167 -31.666 24.5 -36.999c12 -10.667 23.667 -16 35 -16s20.666 3.33301 27.999 10s11.666 16 12.999 28s-2.33398 24.667 -11.001 38c-23.333 40 -43.166 78 -59.499 114
s-29.833 70.333 -40.5 103c-20.667 62.667 -31 150.667 -31 264c0 36.667 -14 55 -42 55z" />
    <glyph glyph-name="uni3228" unicode="&#x3228;" 
d="M802 754c10 0 19.3311 -4.33398 27.998 -13.001c8.66699 -7.33301 28.667 -35 60 -83c15.333 -23.333 29 -48.333 41 -75s22.667 -55 32 -85c18 -59.333 27 -125.666 27 -198.999c0 -74 -9 -140.333 -27 -199c-18 -58 -42.667 -110.667 -74 -158
c-31.333 -48 -51.333 -76 -60 -84c-9.33301 -8 -18.333 -12 -27 -12c-7.33301 0 -14.166 2 -20.499 6s-11 9.33301 -14 16s-3.83301 14.5 -2.5 23.5s6 18.5 14 28.5c45.333 58.667 78.333 118.167 99 178.5s31 127.5 31 201.5c0 75.333 -9.33301 140 -28 194
c-18 56 -52 118 -102 186c-9.33301 10 -14.5 19.5 -15.5 28.5s0.166992 16.667 3.5 23s8.33301 11.5 15 15.5s13.334 6.33301 20.001 7zM236.998 -117.001c-0.666992 -8 -3.33203 -15.001 -7.99902 -21.001s-10.334 -10.333 -17.001 -13s-13.834 -3.33398 -21.501 -2.00098
s-14.5 5.33301 -20.5 12c-9.33301 8.66699 -29.333 36.667 -60 84c-30.667 46.667 -55 99 -73 157s-27 124 -27 198s9 140.667 27 200c18.667 60.667 43 114.334 73 161.001c31.333 48.667 51.333 76.334 60 83.001c7.33301 8 16.333 11.833 27 11.5
s19.667 -3.83301 27 -10.5s11.5 -15.5 12.5 -26.5s-4.16699 -23.167 -15.5 -36.5c-49.333 -67.333 -83.666 -129.333 -102.999 -186c-18 -55.333 -27 -120 -27 -194s10.333 -141.167 31 -201.5s53.667 -119.833 99 -178.5c10.667 -12.667 16 -25 16 -37zM448 454.998
c0 -72 -6.5 -137.5 -19.5 -196.5s-31.833 -108.833 -56.5 -149.5c-49.333 -81.333 -87 -122 -113 -122c-7.33301 0 -14.5 2.16699 -21.5 6.5s-12 10.166 -15 17.499s-3.33301 15.833 -1 25.5s8.83301 20.167 19.5 31.5c42.667 45.333 74 95.333 94 150
c10 28 18 62.333 24 103s9 85.334 9 134.001h-121c-12 -0.666992 -22 2.33301 -30 9s-12 15.667 -12 27c0 24 14 37 42 39h121v111c0 27.333 13.667 41 41 41c12 0 21.5 -3.66699 28.5 -11s10.5 -17.333 10.5 -30v-111h108c42 2.66699 70.667 -3 86 -17
c15.333 -13.333 23 -42.333 23 -87v-313c0 -16 2.66699 -26.833 8 -32.5s17.666 -8.5 36.999 -8.5s33 7.33301 41 22s12 45.667 12 93c0 32 13 48 39 48s39 -17.333 39 -52c0 -71.333 -11.333 -120.333 -34 -147c-22 -26.667 -61.667 -40 -119 -40
c-21.333 0 -38.666 1.83301 -51.999 5.5s-24 9.5 -32 17.5s-13.5 18.833 -16.5 32.5s-4.5 30.5 -4.5 50.5v320c0 13.333 -2.16699 22.333 -6.5 27s-11.833 6.66699 -22.5 6h-106z" />
    <glyph glyph-name="uni3229" unicode="&#x3229;" 
d="M802 754c10 0 19.3311 -4.33398 27.998 -13.001c8.66699 -7.33301 28.667 -35 60 -83c15.333 -23.333 29 -48.333 41 -75s22.667 -55 32 -85c18 -59.333 27 -125.666 27 -198.999c0 -74 -9 -140.333 -27 -199c-18 -58 -42.667 -110.667 -74 -158
c-31.333 -48 -51.333 -76 -60 -84c-9.33301 -8 -18.333 -12 -27 -12c-7.33301 0 -14.166 2 -20.499 6s-11 9.33301 -14 16s-3.83301 14.5 -2.5 23.5s6 18.5 14 28.5c45.333 58.667 78.333 118.167 99 178.5s31 127.5 31 201.5c0 75.333 -9.33301 140 -28 194
c-18 56 -52 118 -102 186c-9.33301 10 -14.5 19.5 -15.5 28.5s0.166992 16.667 3.5 23s8.33301 11.5 15 15.5s13.334 6.33301 20.001 7zM236.998 -117.001c-0.666992 -8 -3.33203 -15.001 -7.99902 -21.001s-10.334 -10.333 -17.001 -13s-13.834 -3.33398 -21.501 -2.00098
s-14.5 5.33301 -20.5 12c-9.33301 8.66699 -29.333 36.667 -60 84c-30.667 46.667 -55 99 -73 157s-27 124 -27 198s9 140.667 27 200c18.667 60.667 43 114.334 73 161.001c31.333 48.667 51.333 76.334 60 83.001c7.33301 8 16.333 11.833 27 11.5
s19.667 -3.83301 27 -10.5s11.5 -15.5 12.5 -26.5s-4.16699 -23.167 -15.5 -36.5c-49.333 -67.333 -83.666 -129.333 -102.999 -186c-18 -55.333 -27 -120 -27 -194s10.333 -141.167 31 -201.5s53.667 -119.833 99 -178.5c10.667 -12.667 16 -25 16 -37zM538 385.998h258
c14 0.666992 24.5 -3.33301 31.5 -12s10.5 -18.167 10.5 -28.5s-3.5 -19.833 -10.5 -28.5s-17.5 -12.334 -31.5 -11.001h-258v-338c0 -13.333 -3.66699 -24 -11 -32s-17.666 -12 -30.999 -12s-23.833 4 -31.5 12s-11.5 18.667 -11.5 32v338h-256
c-14 -1.33301 -24.5 2.33398 -31.5 11.001s-10.5 18.167 -10.5 28.5s3.5 19.833 10.5 28.5s17.5 12.667 31.5 12h256v239c0 13.333 3.83301 24 11.5 32s18.167 12 31.5 12s23.666 -4 30.999 -12s11 -18.667 11 -32v-239z" />
    <glyph glyph-name="uni4E00" unicode="&#x4e00;" 
d="M981 304c0 -12.667 -4.16797 -22.5 -12.501 -29.5s-19.5 -10.5 -33.5 -10.5h-872c-30 0 -45 13.333 -45 40c0 12 3.83301 22 11.5 30s18.834 12 33.501 12h872c14 0 25.167 -4 33.5 -12s12.5 -18 12.5 -30z" />
    <glyph glyph-name="uni4E09" unicode="&#x4e09;" 
d="M960 -86c0 -12.667 -3.16699 -22.167 -9.5 -28.5s-17.5 -9.5 -33.5 -9.5h-835c-16 0 -27 3.5 -33 10.5s-9 16.167 -9 27.5c0 13.333 3 23.166 9 29.499s17 9.5 33 9.5h835c16 0 27.167 -3.16699 33.5 -9.5s9.5 -16.166 9.5 -29.499zM920 636
c0 -12.667 -3.16699 -22.167 -9.5 -28.5s-17.5 -9.5 -33.5 -9.5h-755c-16 0 -27 3.5 -33 10.5s-9 16.167 -9 27.5c0 13.333 3 23.166 9 29.499s17 9.5 33 9.5h755c16 0 27.167 -3.16699 33.5 -9.5s9.5 -16.166 9.5 -29.499zM880 290c0 -12.667 -3.16699 -22.167 -9.5 -28.5
s-17.5 -9.5 -33.5 -9.5h-675c-16 0 -27 3.5 -33 10.5s-9 16.167 -9 27.5c0 13.333 3 23.166 9 29.499s17 9.5 33 9.5h675c16 0 27.167 -3.16699 33.5 -9.5s9.5 -16.166 9.5 -29.499z" />
    <glyph glyph-name="uni4E0A" unicode="&#x4e0a;" 
d="M932 -63c30.667 0 46 -13.333 46 -40c0 -11.333 -4.16699 -20.5 -12.5 -27.5s-19.5 -10.5 -33.5 -10.5h-868c-14 0 -24.667 3.5 -32 10.5s-11 16.167 -11 27.5c0 26.667 14.333 40 43 40h307v786c0 27.333 13.333 41 40 41c26 0 39 -13.667 39 -41v-283h414
c30.667 0 46 -13.333 46 -40c0 -25.333 -14.333 -38 -43 -38h-417v-425h482z" />
    <glyph glyph-name="uni4E0B" unicode="&#x4e0b;" 
d="M62 622c-14.667 0 -24.501 3.5 -29.501 10.5s-7.5 16.167 -7.5 27.5c0 12.667 2.5 22.167 7.5 28.5s14.833 9.5 29.5 9.5h875c14.667 0 24.5 -3.16699 29.5 -9.5s7.5 -15.833 7.5 -28.5c0 -11.333 -2.5 -20.5 -7.5 -27.5s-14.833 -10.5 -29.5 -10.5h-424v-150
c27.333 -17.333 56 -36.5 86 -57.5l90 -64.5l88 -65.5c28.667 -21.667 55 -42.5 79 -62.5c20.667 -17.333 32.334 -31.5 35.001 -42.5s-2 -23.167 -14 -36.5c-10 -10 -20.333 -13.667 -31 -11s-26.334 13 -47.001 31l-64.5 53l-72 56l-75.5 55.5l-74 51.5v-524
c0 -15.333 -3.66699 -25.166 -11 -29.499s-16.666 -6.5 -27.999 -6.5c-12.667 0 -22.5 2.16699 -29.5 6.5s-10.5 14.166 -10.5 29.499v767h-372z" />
    <glyph glyph-name="uni4E13" unicode="&#x4e13;" 
d="M259 369l-182.997 0.000976562c-13.333 0 -22.833 2.5 -28.5 7.5s-8.5 14.5 -8.5 28.5c0 12 2.83301 21.167 8.5 27.5s15.167 9.5 28.5 9.5h212l54 136h-225c-13.333 0 -22.833 2.83301 -28.5 8.5s-8.5 15.167 -8.5 28.5c0 11.333 2.83301 20.166 8.5 26.499
s15.167 9.5 28.5 9.5h254l37 93c6.66699 16 13.667 26.5 21 31.5s16.666 5.83301 27.999 2.5c16 -4.66699 25.167 -12.167 27.5 -22.5s0.5 -23.5 -5.5 -39.5c-4.66699 -11.333 -9 -22.333 -13 -33s-8.33301 -21.334 -13 -32.001h452c14 0 23.5 -3.16699 28.5 -9.5
s7.5 -15.166 7.5 -26.499c0 -10.667 -2.5 -19.5 -7.5 -26.5s-14.5 -10.5 -28.5 -10.5h-481l-27.5 -68.5l-27.5 -67.5h567c13.333 0 22.833 -3 28.5 -9s8.5 -15 8.5 -27c0 -10.667 -2.83301 -19.5 -8.5 -26.5s-15.167 -10.5 -28.5 -10.5h-596l-19.5 -48.5l-18.5 -47.5
c-1.33301 -3.33301 -1.5 -6.33301 -0.5 -9s4.5 -4 10.5 -4h518c24.667 0 44.667 -3.5 60 -10.5s25.666 -16.167 30.999 -27.5s5.66602 -24 0.999023 -38s-14.334 -28 -29.001 -42c-37.333 -35.333 -77.666 -68.666 -120.999 -99.999s-91 -60.333 -143 -87l61.5 -26l62.5 -27
c19.333 -8 31 -16.667 35 -26s3 -20.666 -3 -33.999c-10 -22.667 -30 -27.334 -60 -14.001l-115.5 49l-132 53.5l-132.5 51l-117 42.5c-20 7.33301 -32.167 15.666 -36.5 24.999s-3.5 20.333 2.5 33s13.5 20.167 22.5 22.5s22.167 0.166016 39.5 -6.50098l145 -54l139 -53
c68 34 125 66.5 171 97.5s84 61.5 114 91.5c4 4 2.66699 6 -4 6h-527c-38 -1.33301 -62 7.33398 -72 26.001s-9.66699 41 1 67z" />
    <glyph glyph-name="uni4E1A" unicode="&#x4e1a;" 
d="M940 -81c14 0 23.499 -3 28.499 -9s7.5 -15 7.5 -27c0 -11.333 -2.66699 -20.333 -8 -27s-14.666 -10 -27.999 -10h-885c-13.333 0 -22.333 3.33301 -27 10s-7 15.667 -7 27c0 12 2.16699 21 6.5 27s13.5 9 27.5 9h287v813c0 14.667 4 24.167 12 28.5s16.667 6.5 26 6.5
s18 -2.5 26 -7.5s12 -14.167 12 -27.5v-813h172v807c0 14.667 4 24.167 12 28.5s16.667 6.5 26 6.5s18 -2.5 26 -7.5s12 -14.167 12 -27.5v-807h274zM266.999 65c3.33301 -25.333 3.33008 -42.499 -0.00292969 -51.499s-13.666 -14.5 -30.999 -16.5
c-6.66699 -0.666992 -12.5 -0.666992 -17.5 0s-9.16699 2.83398 -12.5 6.50098s-6.16602 9.16699 -8.49902 16.5s-4.5 17.333 -6.5 30c-13.333 100.667 -27.5 191.667 -42.5 273s-31.167 156.333 -48.5 225c-5.33301 21.333 -7.16602 36.666 -5.49902 45.999
s9.16699 16.333 22.5 21c16 5.33301 27.833 5.16602 35.5 -0.500977s14.167 -18.834 19.5 -39.501c20 -77.333 37.667 -157.166 53 -239.499s29.333 -172.5 42 -270.5zM908.996 550.001c-13.333 -88 -29.832 -173 -49.499 -255s-43.5 -163.667 -71.5 -245
c-6.66699 -19.333 -14.5 -32.166 -23.5 -38.499s-21.833 -6.16602 -38.5 0.500977c-13.333 5.33301 -20.333 12.666 -21 21.999s2 22.666 8 39.999c12.667 36 25 74 37 114s23.167 81.333 33.5 124s19.833 85.5 28.5 128.5s16.334 85.5 23.001 127.5
c3.33301 22 8.16602 36.333 14.499 43s17.166 9 32.499 7s24.5 -8 27.5 -18s2.83301 -26.667 -0.5 -50z" />
    <glyph glyph-name="uni4E5D" unicode="&#x4e5d;" 
d="M398 523l-0.00195312 -42.0059c0 -65.333 -4.83301 -126.166 -14.5 -182.499s-25.667 -110 -48 -161s-51.666 -100 -87.999 -147s-81.5 -93.5 -135.5 -139.5c-21.333 -18.667 -38 -29 -50 -31s-22.667 3 -32 15c-8.66699 11.333 -11 23.666 -7 36.999
s15.667 27.333 35 42c50 38 91.833 77.833 125.5 119.5s60.5 85.834 80.5 132.501s34.167 96.167 42.5 148.5s12.5 107.833 12.5 166.5v42h-213c-15.333 0 -26.833 2.83301 -34.5 8.5s-11.5 16.167 -11.5 31.5c0 14 3.66699 24 11 30s19 9 35 9h213v130
c0 14.667 3.66699 26.167 11 34.5s17.666 12.5 30.999 12.5c11.333 0 20.333 -4.16699 27 -12.5s10 -19.833 10 -34.5v-130h226c16.667 0 30.667 -1.33301 42 -4s20.333 -7.5 27 -14.5s11.334 -16.833 14.001 -29.5s4 -29 4 -49v-473c0 -21.333 1 -39 3 -53s6 -25 12 -33
s14.333 -13.333 25 -16s24.667 -4 42 -4c23.333 0 42 1.33301 56 4s24.667 9.33398 32 20.001s12.166 26.334 14.499 47.001s3.5 49.334 3.5 86.001c0 20.667 2.5 35.834 7.5 45.501s15.5 14.5 31.5 14.5c15.333 0 25.833 -4.16699 31.5 -12.5s8.5 -24.166 8.5 -47.499
c0.666992 -49.333 -2 -89.5 -8 -120.5s-16.167 -55 -30.5 -72s-33.666 -28.5 -57.999 -34.5s-54.5 -9 -90.5 -9c-33.333 0 -60.333 2.66699 -81 8s-36.667 14.5 -48 27.5s-19.166 30.5 -23.499 52.5s-6.5 50 -6.5 84v485c0 8 -0.5 13.167 -1.5 15.5s-3.16699 3.5 -6.5 3.5
h-226z" />
    <glyph glyph-name="uni4E66" unicode="&#x4e66;" 
d="M68 255c-27.333 0 -41.001 12.3359 -41.001 37.0029c0 13.333 4.16699 23.333 12.5 30s17.833 10 28.5 10h270v216h-211c-28 0 -42 12.333 -42 37c0 12 3.33301 21.667 10 29s17.334 11 32.001 11h211v112c0 14 3.5 25 10.5 33s16.5 12 28.5 12s21.667 -4 29 -12
s11 -19 11 -33v-112h270c31.333 0 54.5 -7.66699 69.5 -23s20.5 -39 16.5 -71l-32 -199h56c18 -0.666992 33.167 -2.66699 45.5 -6s22.166 -8.5 29.499 -15.5s12.5 -16.333 15.5 -28s4.5 -26.167 4.5 -43.5c0 -33.333 -1.5 -66.333 -4.5 -99s-6.16699 -63 -9.5 -91
c-7.33301 -47.333 -22.833 -84.833 -46.5 -112.5s-54.5 -43.167 -92.5 -46.5c-38.667 -2.66699 -75.167 -2.33398 -109.5 0.999023s-71.5 9.66602 -111.5 18.999c-17.333 4 -28.5 10.5 -33.5 19.5s-5.83301 20.167 -2.5 33.5c6.66699 25.333 27.667 33.666 63 24.999
c30 -7.33301 59.333 -12.833 88 -16.5s54.667 -4.83398 78 -3.50098c29.333 2 50.666 10 63.999 24s22 36.667 26 68c4.66699 30.667 7.83398 60.334 9.50098 89.001s2.5 58.667 2.5 90c0 6.66699 -1.66699 11 -5 13s-8.66602 3 -15.999 3h-375v-395
c0 -13.333 -3.66699 -24.166 -11 -32.499s-17 -12.5 -29 -12.5s-21.5 4.16699 -28.5 12.5s-10.5 19.166 -10.5 32.499v395h-270zM416.999 548.003v-216h246l29 203c0 8.66699 -3.66699 13 -11 13h-264zM943.999 531.003c-18.667 -18.667 -42 -13.6699 -70 14.9971
c-23.333 24 -51.333 50.167 -84 78.5s-66.334 54.833 -101.001 79.5c-11.333 7.33301 -17.666 16.5 -18.999 27.5s2 21.167 10 30.5c8.66699 9.33301 18 13.833 28 13.5s22.667 -6.16602 38 -17.499l46 -36l52 -43.5l50 -44.5l41 -38c11.333 -11.333 18 -22.666 20 -33.999
s-1.66699 -21.666 -11 -30.999z" />
    <glyph glyph-name="uni4E8C" unicode="&#x4e8c;" 
d="M875 647c26 0 39 -13.333 39 -40s-13 -40 -39 -40h-743c-26 0 -39 13.333 -39 40s13 40 39 40h743zM940 -33c26 0 39 -13.667 39 -41s-13 -41 -39 -41h-877c-25.333 0 -38 13.667 -38 41s12.667 41 38 41h877z" />
    <glyph glyph-name="uni4E94" unicode="&#x4e94;" 
d="M98 631c-14 0 -23.166 2.49902 -27.499 7.49902s-6.5 14.5 -6.5 28.5c0 13.333 2.16699 23.166 6.5 29.499s13.5 9.5 27.5 9.5h803c13.333 0 22.5 -3.16699 27.5 -9.5s7.5 -16.166 7.5 -29.499c0 -14 -2.5 -23.5 -7.5 -28.5s-14.167 -7.5 -27.5 -7.5h-404l-36 -227h266
c20.667 0 38 -1.66699 52 -5s25.167 -9.16602 33.5 -17.499s14.166 -19.5 17.499 -33.5s5 -31.667 5 -53v-355h107c13.333 0 22.5 -3.33301 27.5 -10s7.5 -16.667 7.5 -30c0 -14.667 -2.5 -24.5 -7.5 -29.5s-14.167 -7.5 -27.5 -7.5h-884c-13.333 0 -22.5 2.5 -27.5 7.5
s-7.5 14.833 -7.5 29.5c0 13.333 2.5 23.333 7.5 30s14.167 10 27.5 10h250l61 386h-235c-13.333 0 -22.333 3.33301 -27 10s-7 15.667 -7 27s2.33301 21 7 29s13.667 12 27 12h247l36 227h-319zM449.001 325.999l-61 -385.999h366v350c0 15.333 -1.5 25.166 -4.5 29.499
s-10.167 6.5 -21.5 6.5h-279z" />
    <glyph glyph-name="uni4F0D" unicode="&#x4f0d;" 
d="M323 636c-14.667 0 -24.167 2.5 -28.5 7.5s-6.5 14.167 -6.5 27.5s2.16699 23.333 6.5 30s13.833 10 28.5 10h572c14.667 0 24.167 -3.33301 28.5 -10s6.5 -16.667 6.5 -30s-2.16699 -22.5 -6.5 -27.5s-13.833 -7.5 -28.5 -7.5h-277l-35 -229h190
c24 0 43.167 -1.16699 57.5 -3.5s25.5 -7.5 33.5 -15.5s13.333 -19.5 16 -34.5s4 -34.833 4 -59.5v-349h64c14.667 0 24.167 -3.33301 28.5 -10s6.5 -16.667 6.5 -30c0 -14 -2.16699 -24 -6.5 -30s-13.833 -9 -28.5 -9h-681c-14 0 -23.167 3 -27.5 9s-6.5 16 -6.5 30
c0 13.333 2.16699 23.333 6.5 30s13.5 10 27.5 10h168l58 385h-151c-12 0 -20.5 3.5 -25.5 10.5s-7.5 16.5 -7.5 28.5c0 11.333 2.5 20.5 7.5 27.5s13.5 10.5 25.5 10.5h163l35 229h-217zM571 330l-57.999 -384.999h292v358c0 11.333 -1.83301 18.666 -5.5 21.999
s-9.83398 5 -18.501 5h-210zM257.001 773.001c14.667 -3.33301 23.498 -10.0029 26.498 -20.0029s1.5 -26 -4.5 -48c-17.333 -63.333 -37.666 -123.666 -60.999 -180.999v-665c0 -27.333 -12.667 -41 -38 -41c-24.667 0 -37 13.667 -37 41v510
c-8.66699 -15.333 -17.5 -30 -26.5 -44l-27.5 -43c-13.333 -20 -25 -32.333 -35 -37s-21 -3 -33 5c-11.333 7.33301 -16.666 17 -15.999 29s8.66699 29 24 51c44 66 80 130.833 108 194.5s50.667 129.834 68 198.501c5.33301 19.333 11.833 33.333 19.5 42
s18.5 11.334 32.5 8.00098z" />
    <glyph glyph-name="uni4F53" unicode="&#x4f53;" 
d="M645 -131c0 -14 -2.49805 -25.168 -7.49805 -33.501s-14.167 -12.5 -27.5 -12.5s-23.333 4.16699 -30 12.5s-10 19.5 -10 33.5v135h-190c-29.333 0 -44 12.333 -44 37c0 25.333 14.667 38 44 38h190v366c-32.667 -75.333 -70.834 -145.5 -114.501 -210.5
s-93.834 -130.833 -150.501 -197.5c-15.333 -17.333 -27.833 -26.333 -37.5 -27s-20.5 3.66602 -32.5 12.999c-7.33301 7.33301 -9.83301 17 -7.5 29s9.16602 24.667 20.499 38c28 32 55.333 65 82 99s52 69.833 76 107.5s46.5 77.167 67.5 118.5s40.5 85.666 58.5 132.999
h-196c-29.333 0 -44 12.667 -44 38s14.667 38 44 38h234v113c0 30.667 12.667 46 38 46c13.333 0 22.833 -3.83301 28.5 -11.5s8.5 -19.167 8.5 -34.5v-113h251c13.333 0 24 -3.16699 32 -9.5s12 -15.833 12 -28.5s-4 -22.167 -12 -28.5s-18.667 -9.5 -32 -9.5h-219
c15.333 -40.667 32 -79.5 50 -116.5s38.333 -73.667 61 -110s48 -73 76 -110s59.667 -75.833 95 -116.5c11.333 -12.667 17.333 -25.167 18 -37.5s-4 -23.166 -14 -32.499s-20.667 -12.666 -32 -9.99902s-23.333 13.334 -36 32.001
c-58.667 70.667 -108.667 138.667 -150 204s-74.666 129.333 -99.999 192v-364h181c13.333 0 24 -3 32 -9s12 -15.667 12 -29c0 -11.333 -4 -20.333 -12 -27s-18.667 -10 -32 -10h-181v-135zM210.002 -134.001c0 -13.333 -2.49902 -23.9971 -7.49902 -31.9971
s-15.167 -12 -30.5 -12c-11.333 0 -20.5 3.66699 -27.5 11s-10.5 18.333 -10.5 33v442l-19.5 -33l-19.5 -32c-10 -16 -20.333 -25.667 -31 -29s-21.667 -1.33301 -33 6c-10 7.33301 -15 17.333 -15 30s4.66699 25.667 14 39c38 52.667 72.5 117 103.5 193
s57.5 158.333 79.5 247c8 32 26 45 54 39c12.667 -2.66699 20.667 -9.33398 24 -20.001s3 -23.334 -1 -38.001c-22.667 -84.667 -49.334 -165.334 -80.001 -242.001v-602z" />
    <glyph glyph-name="uni4F5C" unicode="&#x4f5c;" 
d="M501 769c24.667 -5.33301 32.3281 -25 22.9951 -59l-9.5 -32c-3 -10 -6.16699 -20 -9.5 -30h428c11.333 0 21.833 -2.16699 31.5 -6.5s14.5 -14.833 14.5 -31.5c0 -24.667 -15.333 -37 -46 -37h-316v-186h280c13.333 0 24.666 -2.5 33.999 -7.5s14 -14.833 14 -29.5
c0 -13.333 -4.5 -23.166 -13.5 -29.499s-20.5 -9.5 -34.5 -9.5h-280v-201h308c12 0 22.5 -2.33301 31.5 -7s13.5 -14.667 13.5 -30c0 -25.333 -15 -38 -45 -38h-308v-170c0 -15.333 -3.66699 -26.333 -11 -33s-16.333 -10 -27 -10c-11.333 0 -20.5 3.33301 -27.5 10
s-10.5 17.667 -10.5 33v708h-62c-15.333 -42 -32.166 -81.5 -50.499 -118.5s-38.166 -72.833 -59.499 -107.5c-14.667 -23.333 -27.5 -36.333 -38.5 -39s-22.167 0.333008 -33.5 9c-11.333 9.33301 -16.666 19.166 -15.999 29.499s7.66699 25.166 21 44.499
c18.667 27.333 35.334 53.833 50.001 79.5s27.834 51.834 39.501 78.501s22.167 54.667 31.5 84s18.333 61 27 95c4.66699 18 10.834 30.167 18.501 36.5s18.5 7.83301 32.5 4.5zM316.994 701c-13.333 -41.333 -27.6631 -80.501 -42.9961 -117.501
s-31.666 -72.833 -48.999 -107.5v-611c0 -13.333 -2.83301 -24.166 -8.5 -32.499s-14.834 -12.5 -27.501 -12.5c-14.667 0 -24.834 4.16699 -30.501 12.5s-8.5 19.166 -8.5 32.499v484l-24 -34.5l-24 -33.5c-15.333 -20.667 -28.5 -34 -39.5 -40s-22.5 -4.33301 -34.5 5
c-10.667 8 -15.834 19 -15.501 33s9.5 32 27.5 54c48 61.333 88.5 123 121.5 185s59.167 128.333 78.5 199c5.33301 21.333 12.166 35.833 20.499 43.5s19.166 10.167 32.499 7.5c27.333 -5.33301 35.333 -27.666 24 -66.999z" />
    <glyph glyph-name="uni4F7F" unicode="&#x4f7f;" 
d="M924 678c14 0 23.998 -2.83008 29.998 -8.49707s9 -15.167 9 -28.5c0 -12.667 -3 -22.167 -9 -28.5s-16 -9.5 -30 -9.5h-246v-87h168c30 0 51.833 -6 65.5 -18s20.5 -33 20.5 -63v-170c0 -30.667 -6.83301 -51.667 -20.5 -63s-35.5 -17 -65.5 -17l-169 -1
c-5.33301 -90 -29.333 -161 -72 -213c46.667 -20 96.5 -34.333 149.5 -43s110.5 -13.667 172.5 -15c16 0 28.333 -2.5 37 -7.5s13 -14.833 13 -29.5c0 -13.333 -4.33301 -23.333 -13 -30s-20.667 -10 -36 -10c-76.667 1.33301 -146.334 8.33301 -209.001 21
s-121 32.334 -175 59.001c-53.333 -36.667 -125.666 -61 -216.999 -73c-23.333 -3.33301 -39.666 -2.83301 -48.999 1.5s-14.666 15.5 -15.999 33.5c-1.33301 14.667 2.33398 25 11.001 31s25.667 10.667 51 14c28 3.33301 54 8.16602 78 14.499s46 14.166 66 23.499
c-57.333 38.667 -109.666 88.667 -156.999 150c-12.667 16 -18.5 29 -17.5 39s7.16699 19 18.5 27c11.333 7.33301 22.166 9 32.499 5s21.166 -13.667 32.499 -29c23.333 -32 48 -59.833 74 -83.5s53.333 -44.5 82 -62.5c40 40 63 99 69 177h-169c-30 0 -51.5 6 -64.5 18
s-19.5 33 -19.5 63v170c0 30 6.5 51 19.5 63s34.5 18 64.5 18h170v87h-246c-26.667 0 -40 12.333 -40 37c0 25.333 13.333 38 40 38h246v56c0 15.333 2.5 26.666 7.5 33.999s14.833 11 29.5 11s24.667 -3.83301 30 -11.5s8 -18.834 8 -33.501v-56h246zM276.998 773.003
c14.667 -3.33301 23.498 -10.0029 26.498 -20.0029s1.5 -26 -4.5 -48c-17.333 -63.333 -37.666 -123.666 -60.999 -180.999v-661c0 -27.333 -12.667 -41 -38 -41c-24.667 0 -37 13.667 -37 41v506c-8.66699 -15.333 -17.5 -30 -26.5 -44l-27.5 -43
c-13.333 -20 -25 -32.333 -35 -37s-21 -3 -33 5c-11.333 7.33301 -16.666 17 -15.999 29s8.66699 29 24 51c44 66 80 130.833 108 194.5s50.667 129.834 68 198.501c5.33301 19.333 11.833 33.333 19.5 42s18.5 11.334 32.5 8.00098zM425.996 274
c0 -8.66699 5.66699 -13 17 -13h160v181h-160c-11.333 0 -17 -4.33301 -17 -13v-155zM835.996 261c12.667 0 19 4.33301 19 13v155c0 8.66699 -6.33301 13 -19 13h-158v-181h158z" />
    <glyph glyph-name="uni4FE1" unicode="&#x4fe1;" 
d="M916 -68c0 -30 -5.33301 -51.833 -16 -65.5s-31.334 -20.5 -62.001 -20.5h-420c-30.667 0 -51.334 6.83301 -62.001 20.5s-16 35.5 -16 65.5v178c0 30 5.33301 51.5 16 64.5s31.334 19.5 62.001 19.5h420c30.667 0 51.334 -6.5 62.001 -19.5s16 -34.5 16 -64.5v-178z
M274 773c14.667 -3.33301 23.498 -10 26.498 -20s1.5 -26 -4.5 -48c-17.333 -63.333 -37.666 -123.666 -60.999 -180.999v-665c0 -27.333 -12.667 -41 -38 -41c-24.667 0 -37 13.667 -37 41v510c-8.66699 -15.333 -17.5 -30 -26.5 -44l-27.5 -43
c-13.333 -20 -25 -32.333 -35 -37s-21 -3 -33 5c-11.333 7.33301 -16.833 16.666 -16.5 27.999s6.5 25.666 18.5 42.999c46.667 70 84.334 137.5 113.001 202.5s51.667 131.5 69 199.5c6 23.333 12.667 38.333 20 45s18 8.33398 32 5.00098zM839.998 108
c0 5.33301 -1.33301 8 -4 8h-411c-6 0 -9 -2.66699 -9 -8v-174c0 -7.33301 3 -11 9 -11h411c2.66699 0 4 3.66699 4 11v174zM941.998 651c13.333 0 22.499 -3.49902 27.499 -10.499s7.5 -16.167 7.5 -27.5s-2.5 -20.5 -7.5 -27.5s-14.167 -10.5 -27.5 -10.5h-624
c-14 0 -23.5 3.5 -28.5 10.5s-7.5 16.167 -7.5 27.5s2.5 20.5 7.5 27.5s14.833 10.5 29.5 10.5h274c-6 9.33301 -12.5 18.666 -19.5 27.999l-22.5 31c-17.333 21.333 -15.666 40 5.00098 56c9.33301 7.33301 18.333 10.333 27 9s18 -7.66602 28 -18.999
c11.333 -14 22.833 -29.833 34.5 -47.5s23.167 -36.834 34.5 -57.501h262zM914.997 309.001c0 -11.333 -2.66797 -20.666 -8.00098 -27.999s-14.666 -11 -27.999 -11h-513c-13.333 0 -22.333 3.66699 -27 11s-7 16.666 -7 27.999c0 12 2.16699 21.5 6.5 28.5
s13.5 10.5 27.5 10.5h513c14 0 23.5 -3.5 28.5 -10.5s7.5 -16.5 7.5 -28.5zM915.996 457.001c0 -11.333 -2.66797 -20.333 -8.00098 -27s-14.666 -10 -27.999 -10h-513c-13.333 0 -22.333 3.33301 -27 10s-7 15.667 -7 27c0 12 2.16699 21.667 6.5 29s13.5 11 27.5 11h513
c14 0 23.5 -3.66699 28.5 -11s7.5 -17 7.5 -29z" />
    <glyph glyph-name="uni5159" unicode="&#x5159;" 
d="M976 65c0 -46 -2.66895 -83.335 -8.00195 -112.002s-14.666 -51 -27.999 -67s-31 -26.667 -53 -32s-49.667 -8 -83 -8h-342c-39.333 0 -71.166 1.5 -95.499 4.5s-43.166 9.33301 -56.499 19s-22.166 23.667 -26.499 42s-6.5 42.833 -6.5 73.5v187h-45
c-2.66699 -42.667 -7.16699 -80 -13.5 -112s-14.5 -60.667 -24.5 -86s-22.167 -48 -36.5 -68s-30.833 -39.333 -49.5 -58c-16 -15.333 -29.167 -24.5 -39.5 -27.5s-21.166 0.833008 -32.499 11.5c-18.667 18.667 -13 42 17 70c17.333 16 32.333 32.667 45 50
s23.167 36.5 31.5 57.5s14.833 44.833 19.5 71.5s8 57 10 91c-31.333 0.666992 -53.5 7.33398 -66.5 20.001s-19.5 36.334 -19.5 71.001v153c0 18.667 1.33301 33.834 4 45.501s7.5 20.834 14.5 27.501s16.667 11.334 29 14.001s28.5 4 48.5 4h59v81h-154
c-13.333 0 -22.833 3 -28.5 9s-8.5 14.667 -8.5 26c0 12.667 2.83301 22 8.5 28s15.167 9 28.5 9h154v81c0 25.333 13 38 39 38c24.667 0 37 -12.667 37 -38v-81h134c13.333 0 22.833 -3 28.5 -9s8.5 -15.333 8.5 -28c0 -11.333 -2.83301 -20 -8.5 -26s-15.167 -9 -28.5 -9
h-134v-81h60c20 0 36.333 -1.33301 49 -4s22.667 -7.5 30 -14.5s12.333 -16.333 15 -28s4 -26.5 4 -44.5v-153c0 -18.667 -1.33301 -33.834 -4 -45.501s-7.5 -20.834 -14.5 -27.501s-16.833 -11.334 -29.5 -14.001s-28.667 -4 -48 -4h-16v-181
c0 -14.667 1.16699 -26.667 3.5 -36s7.66602 -16.5 15.999 -21.5s20.166 -8.33301 35.499 -10s36 -2.5 62 -2.5h337c20.667 0 37.5 1.5 50.5 4.5s22.833 9.5 29.5 19.5s11.167 24.333 13.5 43s3.5 44 3.5 76c0 15.333 2.5 27 7.5 35s14.5 12 28.5 12
c13.333 0 23.166 -2.83301 29.499 -8.5s9.5 -18.167 9.5 -37.5zM692.998 718.998c0 15.333 2.66699 26.001 8 32.001s15.333 9 30 9c13.333 0 23 -3 29 -9s9 -16.667 9 -32v-250h151c14 0 24.167 -2.83301 30.5 -8.5s9.5 -15.834 9.5 -30.501
c0 -15.333 -3.33301 -25.833 -10 -31.5s-16.667 -8.5 -30 -8.5h-151v-396c0 -27.333 -12.667 -41 -38 -41c-14.667 0 -24.667 3.16699 -30 9.5s-8 16.833 -8 31.5v396h-143c-26.667 0 -40 13.333 -40 40c0 14 3.16699 24 9.5 30s16.5 9 30.5 9h143v250zM389.998 421.999
c0 9.33301 -5.99902 14 -17.999 14h-208c-11.333 0 -17 -4.66699 -17 -14v-167c0 -8.66699 5.66699 -13 17 -13h208c5.33301 0 9.66602 1.16699 12.999 3.5s5 5.5 5 9.5v167z" />
    <glyph glyph-name="uni515B" unicode="&#x515b;" 
d="M981 65c0 -46 -2.66895 -83.335 -8.00195 -112.002s-14.666 -51 -27.999 -67s-31 -26.667 -53 -32s-49.667 -8 -83 -8h-352c-39.333 0 -71.166 1.5 -95.499 4.5s-43.166 9.33301 -56.499 19s-22.166 23.667 -26.499 42s-6.5 42.833 -6.5 73.5v187h-45
c-2.66699 -42.667 -7.16699 -80 -13.5 -112s-14.5 -60.667 -24.5 -86s-22.167 -48 -36.5 -68s-30.833 -39.333 -49.5 -58c-16 -15.333 -29.167 -24.5 -39.5 -27.5s-21.166 0.833008 -32.499 11.5c-18.667 18.667 -13 42 17 70c17.333 16 32.333 32.667 45 50
s23.167 36.5 31.5 57.5s14.833 44.833 19.5 71.5s8 57 10 91c-31.333 0.666992 -53.5 7.33398 -66.5 20.001s-19.5 36.334 -19.5 71.001v153c0 18.667 1.33301 33.834 4 45.501s7.5 20.834 14.5 27.501s16.667 11.334 29 14.001s28.5 4 48.5 4h59v81h-154
c-13.333 0 -22.833 3 -28.5 9s-8.5 14.667 -8.5 26c0 12.667 2.83301 22 8.5 28s15.167 9 28.5 9h154v81c0 25.333 13 38 39 38c24.667 0 37 -12.667 37 -38v-81h142c13.333 0 22.833 -3 28.5 -9s8.5 -15.333 8.5 -28c0 -11.333 -2.83301 -20 -8.5 -26s-15.167 -9 -28.5 -9
h-142v-81h60c20 0 36.333 -1.33301 49 -4s22.667 -7.5 30 -14.5s12.333 -16.333 15 -28s4 -26.5 4 -44.5v-153c0 -18.667 -1.33301 -33.834 -4 -45.501s-7.5 -20.834 -14.5 -27.501s-16.833 -11.334 -29.5 -14.001s-28.667 -4 -48 -4h-16v-181
c0 -14.667 1.16699 -26.667 3.5 -36s7.66602 -16.5 15.999 -21.5s20.166 -8.33301 35.499 -10s36 -2.5 62 -2.5h347c20.667 0 37.5 1.5 50.5 4.5s22.833 9.5 29.5 19.5s11.167 24.333 13.5 43s3.5 44 3.5 76c0 15.333 2.5 27 7.5 35s14.5 12 28.5 12
c13.333 0 23.166 -2.83301 29.499 -8.5s9.5 -18.167 9.5 -37.5zM914.998 385.998c14.667 0 25.166 -2.83301 31.499 -8.5s9.5 -15.5 9.5 -29.5c0 -24.667 -13.667 -37 -41 -37h-179v-341c0 -14.667 -2.66699 -24.834 -8 -30.501s-15.666 -8.5 -30.999 -8.5
c-13.333 0 -22.833 2.83301 -28.5 8.5s-8.5 15.834 -8.5 30.501v341h-154c-27.333 0 -41 12.333 -41 37c0 14 3.33301 23.833 10 29.5s17 8.5 31 8.5h154v225c-18 -3.33301 -37 -6 -57 -8l-67 -7c-18.667 -2 -31.834 -0.666992 -39.501 4s-12.167 14.667 -13.5 30
c-1.33301 14.667 1.83398 24.5 9.50098 29.5s22.167 8.5 43.5 10.5c28.667 2.66699 55.167 5.5 79.5 8.5s48 6.66699 71 11s46.333 9.33301 70 15s49.167 12.5 76.5 20.5c16 4.66699 28.5 6 37.5 4s15.833 -9.33301 20.5 -22c4.66699 -13.333 4.5 -24.333 -0.5 -33
s-17.5 -15.667 -37.5 -21l-63 -16c-18.667 -4.66699 -36.667 -8.66699 -54 -12v-239h179zM384.997 421.998c0 9.33301 -5.99902 14 -17.999 14h-208c-11.333 0 -17 -4.66699 -17 -14v-167c0 -8.66699 5.66699 -13 17 -13h208c5.33301 0 9.66602 1.16699 12.999 3.5
s5 5.5 5 9.5v167z" />
    <glyph glyph-name="uni515E" unicode="&#x515e;" 
d="M528 606c-18.667 -2.66699 -33.0137 -0.99707 -43.0137 5.00293s-14 16 -12 30c1.33301 14 7.16602 23.667 17.499 29s24.166 8.66602 41.499 9.99902c27.333 2.66699 52.666 6 75.999 10s45.833 8.33301 67.5 13s42.667 9.83398 63 15.501s40.833 11.834 61.5 18.501
c11.333 4 22.833 5.16699 34.5 3.5s20.5 -9.5 26.5 -23.5c4 -11.333 3.83301 -20.833 -0.5 -28.5s-17.166 -14.5 -38.499 -20.5c-27.333 -8 -52.166 -14.833 -74.499 -20.5s-44.833 -10.834 -67.5 -15.501v-133l66.5 10.5c23 3.66699 48.833 8.16699 77.5 13.5
c14.667 2 25.334 1.16699 32.001 -2.5s11.667 -12.834 15 -27.501c2 -11.333 0.666992 -20.5 -4 -27.5s-14.667 -11.833 -30 -14.5l-157 -26v-146c32 5.33301 63.667 11.166 95 17.499l94 19.5c15.333 3.33301 27 2.83301 35 -1.5s13 -14.166 15 -29.499
c2.66699 -24 -10.333 -38.333 -39 -43l-106 -18.5l-94 -17.5v-137c0 -9.33301 0.833008 -17.166 2.5 -23.499s5 -11.333 10 -15s12.333 -6.33398 22 -8.00098s22.834 -2.5 39.501 -2.5c22.667 0 40.5 1.5 53.5 4.5s22.667 9.33301 29 19s10.333 23.5 12 41.5
s3.16699 41.667 4.5 71c0.666992 17.333 3.83398 29.833 9.50098 37.5s15.834 11.5 30.501 11.5c12 0 21 -3.66699 27 -11s9 -20 9 -38l-2 -25l-2 -23c4.66699 2 10.334 3 17.001 3c13.333 0 23.166 -2.83301 29.499 -8.5s9.5 -18.167 9.5 -37.5
c0 -46 -2.66699 -83.333 -8 -112s-14.666 -51 -27.999 -67s-31 -26.667 -53 -32s-49.667 -8 -83 -8h-352c-39.333 0 -71.166 1.5 -95.499 4.5s-43.166 9.33301 -56.499 19s-22.166 23.667 -26.499 42s-6.5 42.833 -6.5 73.5v187h-35c-3.33301 -42.667 -8.5 -80 -15.5 -112
s-16.167 -60.667 -27.5 -86s-24.666 -48 -39.999 -68s-32.333 -39.333 -51 -58c-16 -15.333 -29.167 -24.5 -39.5 -27.5s-21.166 0.833008 -32.499 11.5c-18.667 18.667 -13 42 17 70c17.333 16 32.666 32.667 45.999 50s24.833 36.5 34.5 57.5s17.334 44.833 23.001 71.5
s9.83398 57 12.501 91c-32 1.33301 -56 8.16602 -72 20.499s-24 35.833 -24 70.5v153c0 18.667 1.33301 33.834 4 45.501s7.5 20.834 14.5 27.501s16.667 11.334 29 14.001s28.5 4 48.5 4h59v81h-154c-13.333 0 -22.833 3 -28.5 9s-8.5 14.667 -8.5 26
c0 12.667 2.83301 22 8.5 28s15.167 9 28.5 9h154v81c0 25.333 13 38 39 38c24.667 0 37 -12.667 37 -38v-81h134c13.333 0 22.833 -3 28.5 -9s8.5 -15.333 8.5 -28c0 -11.333 -2.83301 -20 -8.5 -26s-15.167 -9 -28.5 -9h-134v-81h60c20 0 36.333 -1.33301 49 -4
s22.667 -7.5 30 -14.5s12.333 -16.333 15 -28s4 -26.5 4 -44.5v-153c0 -18.667 -1.33301 -33.834 -4 -45.501s-7.5 -20.834 -14.5 -27.501s-16.833 -11.334 -29.5 -14.001s-28.667 -4 -48 -4h-16v-181c0 -14.667 1.16699 -26.667 3.5 -36s7.66602 -16.5 15.999 -21.5
s20.166 -8.33301 35.499 -10s36 -2.5 62 -2.5h347c16.667 0 30.834 1 42.501 3s21.167 5.83301 28.5 11.5s12.833 13.834 16.5 24.501s6.16699 25 7.5 43c-11.333 -22.667 -29 -37.5 -53 -44.5s-59 -10.5 -105 -10.5c-30 0 -54.167 1.83301 -72.5 5.5s-32.666 10 -42.999 19
s-17.166 21.5 -20.499 37.5s-5 36 -5 60v123c-15.333 -3.33301 -30.833 -6.16602 -46.5 -8.49902l-49.5 -7.5c-14 -2 -24 -1.5 -30 1.5s-10.667 12.167 -14 27.5s-1.66602 26 5.00098 32s17.334 10.333 32.001 13c17.333 2.66699 34.5 5.16699 51.5 7.5
s34.167 5.16602 51.5 8.49902v146l-85 -14c-16 -2.66699 -27.5 -2 -34.5 2s-11.5 12.667 -13.5 26s-0.333008 23.166 5 29.499s16.333 10.833 33 13.5c17.333 3.33301 33.833 6.16602 49.5 8.49902s30.834 4.83301 45.501 7.5v131c-12 -2 -24.333 -3.83301 -37 -5.5z
M384.986 422.003c0 9.33301 -5.99902 14 -17.999 14h-208c-11.333 0 -17 -4.66699 -17 -14v-167c0 -8.66699 5.66699 -13 17 -13h208c5.33301 0 9.66602 1.16699 12.999 3.5s5 5.5 5 9.5v167z" />
    <glyph glyph-name="uni5161" unicode="&#x5161;" 
d="M342 -36c0 -14 3.33398 -24.333 10.001 -31s17.667 -10.667 33 -12c36.667 -2 72.834 -3.83301 108.501 -5.5s72.334 -2.66699 110.001 -3s77.167 0 118.5 1s86.333 2.83301 135 5.5c10.667 0.666992 19.334 2.5 26.001 5.5s11.667 8.33301 15 16s5.5 18.334 6.5 32.001
s1.5 31.5 1.5 53.5c0 15.333 2.5 27.333 7.5 36s15.5 13 31.5 13c13.333 0 22.666 -4 27.999 -12s8 -20.333 8 -37c0 -37.333 -1.33301 -67.333 -4 -90s-8.16699 -40.167 -16.5 -52.5s-20.333 -20.666 -36 -24.999s-35.834 -6.83301 -60.501 -7.5
c-50 -2 -95.667 -3.33301 -137 -4s-80.833 -1 -118.5 -1s-74.5 0.5 -110.5 1.5s-73.667 2.16699 -113 3.5c-22 0.666992 -40.333 2.83398 -55 6.50098s-26.334 9.66699 -35.001 18s-14.834 19.833 -18.501 34.5s-5.5 33.334 -5.5 56.001v217h-49
c-2 -34.667 -5.66699 -66.334 -11 -95.001s-12.833 -56 -22.5 -82s-21.5 -51.333 -35.5 -76s-31 -50.334 -51 -77.001c-14 -19.333 -27.667 -29.666 -41 -30.999s-23 1.66699 -29 9c-8.66699 10.667 -12 21 -10 31s10 23.333 24 40c16 20.667 30 41.167 42 61.5
s22.167 41.5 30.5 63.5s15 45.667 20 71s8.83301 53.666 11.5 84.999c-33.333 0 -56.833 6.16699 -70.5 18.5s-20.5 36.5 -20.5 72.5v162c0 18.667 1.16699 34 3.5 46s6.83301 21.333 13.5 28s15.834 11.334 27.501 14.001s27.167 4 46.5 4h68v78h-154
c-26.667 0 -40 11.667 -40 35c0 13.333 3.33301 22.666 10 27.999s16.667 8 30 8h154v65c0 26.667 12.333 40 37 40c23.333 0 35 -13.333 35 -40v-65h145c12.667 0 22.667 -2.66699 30 -8s11 -14.666 11 -27.999c0 -12.667 -3.66699 -21.667 -11 -27s-17.333 -8 -30 -8h-145
v-78h59c19.333 0 35.166 -1.5 47.499 -4.5s22 -8 29 -15s11.667 -16.333 14 -28s3.5 -26.5 3.5 -44.5v-162c0 -18.667 -1.16699 -33.834 -3.5 -45.501s-7 -20.834 -14 -27.501s-16.5 -11.334 -28.5 -14.001s-27.333 -4 -46 -4h-9v-219zM519.001 652
c-27.333 0 -40.998 12 -40.998 36c0 24.667 13.667 37 41 37h370c28 0 42 -12.333 42 -37c0 -24 -14 -36 -42 -36h-159c-6.66699 -30 -14.667 -59.333 -24 -88h109c30 0 51 -6.5 63 -19.5s18 -34.5 18 -64.5v-419c0 -30 -6 -51.833 -18 -65.5s-33 -20.5 -63 -20.5h-238
c-30.667 0 -51.334 6.83301 -62.001 20.5s-16 35.5 -16 65.5v419c0 30 5.33301 51.5 16 64.5s31.334 19.5 62.001 19.5h55c5.33301 15.333 10.166 30 14.499 44s8.16602 28.667 11.499 44h-139zM373.003 445c0 8.66699 -5.66699 13 -17 13h-211c-10 0 -15 -4.33301 -15 -13
v-179c0 -8.66699 5 -13 15 -13h211c11.333 0 17 4.33301 17 13v179zM821.003 239h-249v-172c0 -13.333 4.33301 -20 13 -20h221c10 0 15 6.66699 15 20v172zM821.003 477c0 12.667 -5 19 -15 19h-221c-8.66699 0 -13 -6.33301 -13 -19v-168h249v168z" />
    </font>
</defs>
</svg>
