<?xml version="1.0" encoding="utf-8"?>
<!-- Generator: Adobe Illustrator 21.0.0, SVG Export Plug-In . SVG Version: 6.00 Build 0)  -->
<svg version="1.1" id="图层_1" xmlns="http://www.w3.org/2000/svg" xmlns:xlink="http://www.w3.org/1999/xlink" x="0px" y="0px"
	 viewBox="0 0 40 40" style="enable-background:new 0 0 40 40;" xml:space="preserve">
<style type="text/css">
	.st0{fill:none;}
	.st1{fill:#050607;}
</style>
<title>注册签约</title>
<desc>Created with Sketch.</desc>
<g id="Page-1">
	<g id="主页" transform="translate(-24.000000, -184.000000)">
		<g id="主菜单" transform="translate(0.000000, 64.000000)">
			<g id="注册签约_1_" transform="translate(0.000000, 112.000000)">
				<g id="icon" transform="translate(24.000000, 8.000000)">
					<g id="注册签约">
						<rect id="Rectangle-2" class="st0" width="40" height="40"/>
						<g id="paint-brush-1" transform="translate(8.000000, 8.000000)">
							<g id="Solid">
								<g id="Group">
									<path id="Shape" class="st1" d="M22.8,1.3c-1.4-1.4-3.6-1.4-5,0L7.4,11.7c1.3-0.1,2.7,0.4,3.7,1.4s1.4,2.4,1.4,3.7
										L22.8,6.4c0.7-0.7,1-1.6,1-2.5S23.5,2,22.8,1.3z"/>
									<path id="Shape_1_" class="st1" d="M3.2,14.7c-3.3,3.3,0.5,5-3.2,8.7c0,0,6.1,0.8,9.4-2.5c1.7-1.7,1.7-4.5,0-6.2
										C7.7,13,4.9,13,3.2,14.7z"/>
								</g>
							</g>
						</g>
					</g>
				</g>
			</g>
		</g>
	</g>
</g>
</svg>
